<mxfile host="app.diagrams.net" modified="2024-01-30T15:24:16.821Z" agent="Mozilla/5.0 (Macintosh; Intel Mac OS X 10_15_7) AppleWebKit/537.36 (KHTML, like Gecko) Chrome/120.0.0.0 Safari/537.36" etag="h8kOx_YQqmxevJhtj8-Z" version="23.0.2" type="github" pages="2">
  <diagram name="Page-1" id="0783ab3e-0a74-02c8-0abd-f7b4e66b4bec">
    <mxGraphModel dx="19014" dy="5331" grid="0" gridSize="10" guides="1" tooltips="1" connect="1" arrows="1" fold="1" page="1" pageScale="1.5" pageWidth="200" pageHeight="300" background="none" math="0" shadow="0">
      <root>
        <mxCell id="0" />
        <mxCell id="1" parent="0" />
        <mxCell id="5HCTBghDy20LutXGEIBz-1255" value="" style="rounded=0;whiteSpace=wrap;html=1;strokeWidth=6;" parent="1" vertex="1">
          <mxGeometry x="-16730" y="-4130" width="6240" height="10702" as="geometry" />
        </mxCell>
        <object label="&lt;span style=&quot;font-size: 28px;&quot;&gt;مدیر آزمایشگاه&lt;/span&gt;" id="5HCTBghDy20LutXGEIBz-999">
          <mxCell style="shape=umlActor;verticalLabelPosition=bottom;verticalAlign=top;html=1;outlineConnect=0;labelPosition=center;align=center;" parent="1" vertex="1">
            <mxGeometry x="-10417.5" y="-2892" width="305" height="610" as="geometry" />
          </mxCell>
        </object>
        <object label="&lt;font style=&quot;font-size: 28px;&quot;&gt;بیمار&lt;/font&gt;" id="5HCTBghDy20LutXGEIBz-1000">
          <mxCell style="shape=umlActor;verticalLabelPosition=bottom;verticalAlign=top;html=1;outlineConnect=0;labelPosition=center;align=center;" parent="1" vertex="1">
            <mxGeometry x="-17470" y="888" width="310" height="620" as="geometry" />
          </mxCell>
        </object>
        <object label="&lt;font style=&quot;font-size: 28px;&quot;&gt;تکنسین&lt;/font&gt;" id="5HCTBghDy20LutXGEIBz-1001">
          <mxCell style="shape=umlActor;verticalLabelPosition=bottom;verticalAlign=top;html=1;outlineConnect=0;labelPosition=center;align=center;" parent="1" vertex="1">
            <mxGeometry x="-10260" y="2650" width="310" height="620" as="geometry" />
          </mxCell>
        </object>
        <object label="&lt;font style=&quot;font-size: 28px;&quot;&gt;پاتولوژیست&lt;/font&gt;" id="5HCTBghDy20LutXGEIBz-1002">
          <mxCell style="shape=umlActor;verticalLabelPosition=bottom;verticalAlign=top;html=1;outlineConnect=0;labelPosition=center;align=center;fillColor=#FFFFFF;strokeColor=#1A1A1A;strokeWidth=3;" parent="1" vertex="1">
            <mxGeometry x="-10287.5" y="4790" width="365" height="730" as="geometry" />
          </mxCell>
        </object>
        <mxCell id="5HCTBghDy20LutXGEIBz-1003" value="&lt;font style=&quot;font-size: 36px;&quot;&gt;ثبت آزمایشگاه&lt;/font&gt;" style="ellipse;whiteSpace=wrap;html=1;fillColor=#d5e8d4;strokeColor=#82b366;" parent="1" vertex="1">
          <mxGeometry x="-12530" y="-752" width="385" height="260" as="geometry" />
        </mxCell>
        <mxCell id="5HCTBghDy20LutXGEIBz-1004" value="&lt;font style=&quot;font-size: 36px;&quot;&gt;پرداخت هزینه&lt;/font&gt;" style="ellipse;whiteSpace=wrap;html=1;fillColor=#d5e8d4;strokeColor=#82b366;" parent="1" vertex="1">
          <mxGeometry x="-11715" y="88" width="385" height="260" as="geometry" />
        </mxCell>
        <mxCell id="5HCTBghDy20LutXGEIBz-1005" value="" style="endArrow=classic;html=1;rounded=0;entryX=0;entryY=0.5;entryDx=0;entryDy=0;exitX=1;exitY=0.5;exitDx=0;exitDy=0;strokeWidth=5;dashed=1;fillColor=#d5e8d4;strokeColor=#82b366;" parent="1" source="5HCTBghDy20LutXGEIBz-1003" target="5HCTBghDy20LutXGEIBz-1004" edge="1">
          <mxGeometry width="50" height="50" relative="1" as="geometry">
            <mxPoint x="-14180" y="-2412" as="sourcePoint" />
            <mxPoint x="-14130" y="-2462" as="targetPoint" />
          </mxGeometry>
        </mxCell>
        <mxCell id="5HCTBghDy20LutXGEIBz-1006" value="&lt;font style=&quot;font-size: 36px;&quot;&gt;&amp;lt;&amp;lt;include&amp;gt;&amp;gt;&lt;/font&gt;" style="edgeLabel;html=1;align=center;verticalAlign=middle;resizable=0;points=[];" parent="5HCTBghDy20LutXGEIBz-1005" connectable="0" vertex="1">
          <mxGeometry x="0.0905" y="-4" relative="1" as="geometry">
            <mxPoint x="-1" as="offset" />
          </mxGeometry>
        </mxCell>
        <mxCell id="5HCTBghDy20LutXGEIBz-1007" value="" style="group" parent="1" connectable="0" vertex="1">
          <mxGeometry x="-16047.5" y="208" width="540" height="220" as="geometry" />
        </mxCell>
        <mxCell id="5HCTBghDy20LutXGEIBz-1008" value="&lt;font style=&quot;font-size: 36px;&quot;&gt;مشاهده‌ی نتایج آزمایش‌ها&lt;/font&gt;" style="ellipse;whiteSpace=wrap;html=1;fillColor=#e1d5e7;strokeColor=#9673a6;" parent="1" vertex="1">
          <mxGeometry x="-11871.94" y="5300" width="441.94" height="265" as="geometry" />
        </mxCell>
        <mxCell id="5HCTBghDy20LutXGEIBz-1012" value="&lt;span style=&quot;font-size: 36px;&quot;&gt;ورود به سامانه&lt;/span&gt;" style="ellipse;whiteSpace=wrap;html=1;fillColor=#d5e8d4;strokeColor=#82b366;" parent="1" vertex="1">
          <mxGeometry x="-11120" y="-3952" width="385" height="260" as="geometry" />
        </mxCell>
        <mxCell id="5HCTBghDy20LutXGEIBz-1013" value="&lt;span style=&quot;font-size: 36px;&quot;&gt;جستجو&lt;/span&gt;" style="ellipse;whiteSpace=wrap;html=1;fillColor=#e1d5e7;strokeColor=#9673a6;dashed=1;" parent="1" vertex="1">
          <mxGeometry x="-12807.5" y="6110" width="385" height="260" as="geometry" />
        </mxCell>
        <mxCell id="5HCTBghDy20LutXGEIBz-1014" value="&lt;span style=&quot;font-size: 36px;&quot;&gt;خروج از سامانه&lt;/span&gt;" style="ellipse;whiteSpace=wrap;html=1;fillColor=#d5e8d4;strokeColor=#82b366;" parent="1" vertex="1">
          <mxGeometry x="-11570" y="-3782" width="385" height="260" as="geometry" />
        </mxCell>
        <mxCell id="5HCTBghDy20LutXGEIBz-1015" value="" style="endArrow=none;html=1;rounded=0;entryX=0.5;entryY=0.5;entryDx=0;entryDy=0;entryPerimeter=0;exitX=1;exitY=0.5;exitDx=0;exitDy=0;strokeWidth=3;fillColor=#d5e8d4;strokeColor=#82b366;" parent="1" source="5HCTBghDy20LutXGEIBz-1003" target="5HCTBghDy20LutXGEIBz-999" edge="1">
          <mxGeometry width="50" height="50" relative="1" as="geometry">
            <mxPoint x="-13350" y="-2622" as="sourcePoint" />
            <mxPoint x="-13300" y="-2672" as="targetPoint" />
          </mxGeometry>
        </mxCell>
        <mxCell id="5HCTBghDy20LutXGEIBz-1016" value="" style="endArrow=none;html=1;rounded=0;exitX=1;exitY=0.5;exitDx=0;exitDy=0;strokeWidth=3;entryX=0.5;entryY=0.5;entryDx=0;entryDy=0;entryPerimeter=0;fillColor=#d5e8d4;strokeColor=#82b366;" parent="1" source="5HCTBghDy20LutXGEIBz-1014" target="5HCTBghDy20LutXGEIBz-999" edge="1">
          <mxGeometry width="50" height="50" relative="1" as="geometry">
            <mxPoint x="-13145" y="-2712" as="sourcePoint" />
            <mxPoint x="-12507" y="-2587" as="targetPoint" />
          </mxGeometry>
        </mxCell>
        <mxCell id="5HCTBghDy20LutXGEIBz-1017" value="&lt;font style=&quot;font-size: 36px;&quot;&gt;جستجو میان نوبت ها&lt;/font&gt;" style="ellipse;whiteSpace=wrap;html=1;fillColor=#d0cee2;strokeColor=#56517e;" parent="1" vertex="1">
          <mxGeometry x="-12020" y="1188" width="385" height="260" as="geometry" />
        </mxCell>
        <mxCell id="5HCTBghDy20LutXGEIBz-1021" value="&lt;span style=&quot;font-size: 36px;&quot;&gt;تغییر رمزعبور&lt;/span&gt;" style="ellipse;whiteSpace=wrap;html=1;fillColor=#d5e8d4;strokeColor=#82b366;" parent="1" vertex="1">
          <mxGeometry x="-12300" y="-3622" width="385" height="260" as="geometry" />
        </mxCell>
        <mxCell id="5HCTBghDy20LutXGEIBz-1022" value="&lt;font style=&quot;font-size: 36px;&quot;&gt;مشاهده نوبت ها&lt;/font&gt;" style="ellipse;whiteSpace=wrap;html=1;fillColor=#d0cee2;strokeColor=#56517e;" parent="1" vertex="1">
          <mxGeometry x="-11230" y="1188" width="385" height="260" as="geometry" />
        </mxCell>
        <mxCell id="5HCTBghDy20LutXGEIBz-1023" value="&lt;span style=&quot;font-size: 36px;&quot;&gt;فراموشی رمزعبور&lt;/span&gt;" style="ellipse;whiteSpace=wrap;html=1;fillColor=#b0e3e6;strokeColor=#0e8088;" parent="1" vertex="1">
          <mxGeometry x="-13630" y="858" width="385" height="260" as="geometry" />
        </mxCell>
        <mxCell id="5HCTBghDy20LutXGEIBz-1024" value="" style="endArrow=none;html=1;rounded=0;exitX=1;exitY=0.5;exitDx=0;exitDy=0;strokeWidth=3;entryX=0.5;entryY=0.5;entryDx=0;entryDy=0;entryPerimeter=0;fillColor=#b0e3e6;strokeColor=#0e8088;" parent="1" source="5HCTBghDy20LutXGEIBz-1023" target="5HCTBghDy20LutXGEIBz-999" edge="1">
          <mxGeometry width="50" height="50" relative="1" as="geometry">
            <mxPoint x="-13620" y="-3262" as="sourcePoint" />
            <mxPoint x="-12508" y="-2587" as="targetPoint" />
          </mxGeometry>
        </mxCell>
        <mxCell id="5HCTBghDy20LutXGEIBz-1025" value="&lt;font style=&quot;font-size: 36px;&quot;&gt;ثبت آزمایش و نوع آن برای بیمار&lt;/font&gt;" style="ellipse;whiteSpace=wrap;html=1;fillColor=#ffe6cc;strokeColor=#d79b00;" parent="1" vertex="1">
          <mxGeometry x="-12100" y="2860" width="385" height="260" as="geometry" />
        </mxCell>
        <mxCell id="5HCTBghDy20LutXGEIBz-1026" value="&lt;font style=&quot;font-size: 36px;&quot;&gt;نتیجه‌ی اعمال الگوریتم‌های هوش مصنوعی&lt;/font&gt;" style="ellipse;whiteSpace=wrap;html=1;fillColor=#e1d5e7;strokeColor=#9673a6;" parent="1" vertex="1">
          <mxGeometry x="-12782.5" y="4880" width="400" height="305" as="geometry" />
        </mxCell>
        <mxCell id="5HCTBghDy20LutXGEIBz-1030" value="" style="endArrow=none;html=1;rounded=0;exitX=1;exitY=0.5;exitDx=0;exitDy=0;strokeWidth=3;entryX=0.5;entryY=0.5;entryDx=0;entryDy=0;entryPerimeter=0;fillColor=#d5e8d4;strokeColor=#82b366;" parent="1" source="5HCTBghDy20LutXGEIBz-1012" target="5HCTBghDy20LutXGEIBz-999" edge="1">
          <mxGeometry width="50" height="50" relative="1" as="geometry">
            <mxPoint x="-13145" y="-3052" as="sourcePoint" />
            <mxPoint x="-12520" y="-2602" as="targetPoint" />
          </mxGeometry>
        </mxCell>
        <mxCell id="5HCTBghDy20LutXGEIBz-1034" value="" style="endArrow=classic;html=1;rounded=0;entryX=1;entryY=0.5;entryDx=0;entryDy=0;exitX=0;exitY=0.5;exitDx=0;exitDy=0;strokeWidth=5;dashed=1;fillColor=#d5e8d4;strokeColor=#82b366;startArrow=none;startFill=0;endFill=1;" parent="1" source="5HCTBghDy20LutXGEIBz-1037" target="5HCTBghDy20LutXGEIBz-1021" edge="1">
          <mxGeometry width="50" height="50" relative="1" as="geometry">
            <mxPoint x="-13485" y="-2802" as="sourcePoint" />
            <mxPoint x="-14235" y="-2642" as="targetPoint" />
          </mxGeometry>
        </mxCell>
        <mxCell id="5HCTBghDy20LutXGEIBz-1035" value="&lt;font style=&quot;font-size: 36px;&quot;&gt;&amp;lt;&amp;lt;include&amp;gt;&amp;gt;&lt;/font&gt;" style="edgeLabel;html=1;align=center;verticalAlign=middle;resizable=0;points=[];" parent="5HCTBghDy20LutXGEIBz-1034" connectable="0" vertex="1">
          <mxGeometry x="0.0905" y="-4" relative="1" as="geometry">
            <mxPoint x="-1" as="offset" />
          </mxGeometry>
        </mxCell>
        <mxCell id="5HCTBghDy20LutXGEIBz-1036" value="&lt;span style=&quot;font-size: 36px;&quot;&gt;مشاهده تشخیص‌های قبلی&lt;/span&gt;" style="ellipse;whiteSpace=wrap;html=1;fillColor=#e1d5e7;strokeColor=#9673a6;" parent="1" vertex="1">
          <mxGeometry x="-11837.5" y="6110" width="385" height="260" as="geometry" />
        </mxCell>
        <mxCell id="5HCTBghDy20LutXGEIBz-1037" value="&lt;span style=&quot;font-size: 36px;&quot;&gt;ویرایش اطلاعات&lt;/span&gt;" style="ellipse;whiteSpace=wrap;html=1;fillColor=#d5e8d4;strokeColor=#82b366;" parent="1" vertex="1">
          <mxGeometry x="-11590" y="-3362" width="385" height="260" as="geometry" />
        </mxCell>
        <mxCell id="5HCTBghDy20LutXGEIBz-1041" value="&lt;font style=&quot;font-size: 36px;&quot;&gt;درخواست آزمایش مجدد&lt;/font&gt;" style="ellipse;whiteSpace=wrap;html=1;fillColor=#e1d5e7;strokeColor=#9673a6;" parent="1" vertex="1">
          <mxGeometry x="-12775" y="5250" width="385" height="260" as="geometry" />
        </mxCell>
        <mxCell id="5HCTBghDy20LutXGEIBz-1042" value="" style="endArrow=none;html=1;rounded=0;exitX=1;exitY=0.5;exitDx=0;exitDy=0;strokeWidth=3;entryX=0.5;entryY=0.5;entryDx=0;entryDy=0;entryPerimeter=0;fillColor=#d5e8d4;strokeColor=#82b366;" parent="1" source="5HCTBghDy20LutXGEIBz-1037" target="5HCTBghDy20LutXGEIBz-999" edge="1">
          <mxGeometry width="50" height="50" relative="1" as="geometry">
            <mxPoint x="-13085" y="-2902" as="sourcePoint" />
            <mxPoint x="-12507" y="-2587" as="targetPoint" />
          </mxGeometry>
        </mxCell>
        <mxCell id="5HCTBghDy20LutXGEIBz-1046" value="&lt;font style=&quot;font-size: 36px;&quot;&gt;مشاهده آزمایش ها&lt;br&gt;&lt;/font&gt;" style="ellipse;whiteSpace=wrap;html=1;fillColor=#ffe6cc;strokeColor=#d79b00;" parent="1" vertex="1">
          <mxGeometry x="-11150" y="2860" width="385" height="260" as="geometry" />
        </mxCell>
        <mxCell id="5HCTBghDy20LutXGEIBz-1047" value="&lt;font style=&quot;font-size: 36px;&quot;&gt;جستجو میان نتایج آزمایش ها&lt;/font&gt;" style="ellipse;whiteSpace=wrap;html=1;fillColor=#ffe6cc;strokeColor=#d79b00;" parent="1" vertex="1">
          <mxGeometry x="-12100" y="2470" width="385" height="260" as="geometry" />
        </mxCell>
        <mxCell id="5HCTBghDy20LutXGEIBz-1048" value="&lt;span style=&quot;font-size: 36px;&quot;&gt;دریافت کدتایید&lt;/span&gt;" style="ellipse;whiteSpace=wrap;html=1;fillColor=#b0e3e6;strokeColor=#0e8088;" parent="1" vertex="1">
          <mxGeometry x="-14520" y="838" width="385" height="260" as="geometry" />
        </mxCell>
        <mxCell id="5HCTBghDy20LutXGEIBz-1049" value="&lt;span style=&quot;font-size: 36px;&quot;&gt;تغییر رمز عبور&lt;/span&gt;" style="ellipse;whiteSpace=wrap;html=1;fillColor=#bac8d3;strokeColor=#23445d;dashed=1;" parent="1" vertex="1">
          <mxGeometry x="-12717.5" y="4390" width="385" height="260" as="geometry" />
        </mxCell>
        <mxCell id="5HCTBghDy20LutXGEIBz-1050" value="&lt;span style=&quot;font-size: 36px;&quot;&gt;مدیریت پاتولوژیست‌ها&lt;/span&gt;" style="ellipse;whiteSpace=wrap;html=1;fillColor=#d5e8d4;strokeColor=#82b366;" parent="1" vertex="1">
          <mxGeometry x="-11767.5" y="-2027" width="385" height="260" as="geometry" />
        </mxCell>
        <mxCell id="5HCTBghDy20LutXGEIBz-1051" value="" style="endArrow=none;html=1;rounded=0;exitX=1;exitY=0.5;exitDx=0;exitDy=0;strokeWidth=3;entryX=0.5;entryY=0.5;entryDx=0;entryDy=0;entryPerimeter=0;fillColor=#d5e8d4;strokeColor=#82b366;" parent="1" source="5HCTBghDy20LutXGEIBz-1058" target="5HCTBghDy20LutXGEIBz-999" edge="1">
          <mxGeometry width="50" height="50" relative="1" as="geometry">
            <mxPoint x="-10865" y="-2242" as="sourcePoint" />
            <mxPoint x="-10255" y="-2577" as="targetPoint" />
          </mxGeometry>
        </mxCell>
        <mxCell id="5HCTBghDy20LutXGEIBz-1054" value="" style="endArrow=none;html=1;rounded=0;exitX=1;exitY=0.5;exitDx=0;exitDy=0;strokeWidth=3;entryX=0.5;entryY=0.5;entryDx=0;entryDy=0;entryPerimeter=0;fillColor=#d5e8d4;strokeColor=#82b366;" parent="1" source="5HCTBghDy20LutXGEIBz-1050" target="5HCTBghDy20LutXGEIBz-999" edge="1">
          <mxGeometry width="50" height="50" relative="1" as="geometry">
            <mxPoint x="-10865" y="-1922" as="sourcePoint" />
            <mxPoint x="-10255" y="-2577" as="targetPoint" />
          </mxGeometry>
        </mxCell>
        <mxCell id="5HCTBghDy20LutXGEIBz-1055" value="" style="endArrow=classic;html=1;rounded=0;entryX=1;entryY=0.5;entryDx=0;entryDy=0;exitX=0;exitY=0.5;exitDx=0;exitDy=0;strokeWidth=5;dashed=1;fillColor=#b0e3e6;strokeColor=#0e8088;" parent="1" source="5HCTBghDy20LutXGEIBz-1023" target="5HCTBghDy20LutXGEIBz-1048" edge="1">
          <mxGeometry width="50" height="50" relative="1" as="geometry">
            <mxPoint x="-11250" y="-2242" as="sourcePoint" />
            <mxPoint x="-11765" y="-2242" as="targetPoint" />
          </mxGeometry>
        </mxCell>
        <mxCell id="5HCTBghDy20LutXGEIBz-1056" value="&lt;font style=&quot;font-size: 36px;&quot;&gt;&amp;lt;&amp;lt;include&amp;gt;&amp;gt;&lt;/font&gt;" style="edgeLabel;html=1;align=center;verticalAlign=middle;resizable=0;points=[];" parent="5HCTBghDy20LutXGEIBz-1055" connectable="0" vertex="1">
          <mxGeometry x="0.0905" y="-4" relative="1" as="geometry">
            <mxPoint x="-1" as="offset" />
          </mxGeometry>
        </mxCell>
        <mxCell id="5HCTBghDy20LutXGEIBz-1057" value="&lt;span style=&quot;font-size: 36px;&quot;&gt;جستجو&lt;/span&gt;" style="ellipse;whiteSpace=wrap;html=1;fillColor=#d5e8d4;strokeColor=#82b366;" parent="1" vertex="1">
          <mxGeometry x="-12340" y="-2472" width="385" height="260" as="geometry" />
        </mxCell>
        <mxCell id="5HCTBghDy20LutXGEIBz-1058" value="&lt;span style=&quot;font-size: 36px;&quot;&gt;مدیریت تکنسین‌ها&lt;/span&gt;" style="ellipse;whiteSpace=wrap;html=1;fillColor=#d5e8d4;strokeColor=#82b366;" parent="1" vertex="1">
          <mxGeometry x="-11375" y="-2782" width="385" height="260" as="geometry" />
        </mxCell>
        <mxCell id="5HCTBghDy20LutXGEIBz-1059" value="" style="endArrow=classic;html=1;rounded=0;entryX=1;entryY=0;entryDx=0;entryDy=0;exitX=0.039;exitY=0.654;exitDx=0;exitDy=0;strokeWidth=5;dashed=1;fillColor=#d5e8d4;strokeColor=#82b366;exitPerimeter=0;" parent="1" source="5HCTBghDy20LutXGEIBz-1058" target="5HCTBghDy20LutXGEIBz-1057" edge="1">
          <mxGeometry width="50" height="50" relative="1" as="geometry">
            <mxPoint x="-11424.999999999995" y="-1362" as="sourcePoint" />
            <mxPoint x="-14365" y="-2792" as="targetPoint" />
          </mxGeometry>
        </mxCell>
        <mxCell id="5HCTBghDy20LutXGEIBz-1060" value="&lt;font style=&quot;font-size: 36px;&quot;&gt;&amp;lt;&amp;lt;include&amp;gt;&amp;gt;&lt;/font&gt;" style="edgeLabel;html=1;align=center;verticalAlign=middle;resizable=0;points=[];" parent="5HCTBghDy20LutXGEIBz-1059" connectable="0" vertex="1">
          <mxGeometry x="0.0905" y="-4" relative="1" as="geometry">
            <mxPoint x="-1" as="offset" />
          </mxGeometry>
        </mxCell>
        <mxCell id="5HCTBghDy20LutXGEIBz-1061" value="&lt;span style=&quot;font-size: 36px;&quot;&gt;ویرایش اطلاعات&lt;/span&gt;" style="ellipse;whiteSpace=wrap;html=1;fillColor=#bac8d3;strokeColor=#23445d;" parent="1" vertex="1">
          <mxGeometry x="-11815" y="4400" width="385" height="260" as="geometry" />
        </mxCell>
        <mxCell id="5HCTBghDy20LutXGEIBz-1062" value="" style="endArrow=classic;html=1;rounded=0;exitX=0;exitY=1;exitDx=0;exitDy=0;strokeWidth=5;dashed=1;fillColor=#d5e8d4;strokeColor=#82b366;entryX=1;entryY=0.5;entryDx=0;entryDy=0;" parent="1" source="5HCTBghDy20LutXGEIBz-1050" target="kJWpjG3ettngIaQq_M2S-3" edge="1">
          <mxGeometry width="50" height="50" relative="1" as="geometry">
            <mxPoint x="-11355" y="-1702" as="sourcePoint" />
            <mxPoint x="-13295" y="-1782" as="targetPoint" />
          </mxGeometry>
        </mxCell>
        <mxCell id="5HCTBghDy20LutXGEIBz-1063" value="&lt;font style=&quot;font-size: 36px;&quot;&gt;&amp;lt;&amp;lt;include&amp;gt;&amp;gt;&lt;/font&gt;" style="edgeLabel;html=1;align=center;verticalAlign=middle;resizable=0;points=[];" parent="5HCTBghDy20LutXGEIBz-1062" connectable="0" vertex="1">
          <mxGeometry x="0.0905" y="-4" relative="1" as="geometry">
            <mxPoint x="-1" as="offset" />
          </mxGeometry>
        </mxCell>
        <mxCell id="5HCTBghDy20LutXGEIBz-1064" value="&lt;span style=&quot;font-size: 36px;&quot;&gt;اضافه‌کردن تکنسین&lt;/span&gt;" style="ellipse;whiteSpace=wrap;html=1;fillColor=#d5e8d4;strokeColor=#82b366;" parent="1" vertex="1">
          <mxGeometry x="-12340" y="-3112" width="385" height="260" as="geometry" />
        </mxCell>
        <mxCell id="5HCTBghDy20LutXGEIBz-1065" value="" style="endArrow=classic;html=1;rounded=0;entryX=1;entryY=0.5;entryDx=0;entryDy=0;strokeWidth=5;dashed=1;fillColor=#d5e8d4;strokeColor=#82b366;endFill=1;startArrow=none;startFill=0;exitX=0.016;exitY=0.377;exitDx=0;exitDy=0;exitPerimeter=0;" parent="1" source="5HCTBghDy20LutXGEIBz-1058" target="5HCTBghDy20LutXGEIBz-1064" edge="1">
          <mxGeometry width="50" height="50" relative="1" as="geometry">
            <mxPoint x="-11355" y="-1742" as="sourcePoint" />
            <mxPoint x="-14206.94" y="-2302" as="targetPoint" />
          </mxGeometry>
        </mxCell>
        <mxCell id="5HCTBghDy20LutXGEIBz-1066" value="&lt;span style=&quot;font-size: 36px;&quot;&gt;&amp;lt;&amp;lt;include&amp;gt;&amp;gt;&lt;/span&gt;" style="edgeLabel;html=1;align=center;verticalAlign=middle;resizable=0;points=[];" parent="5HCTBghDy20LutXGEIBz-1065" connectable="0" vertex="1">
          <mxGeometry x="0.0905" y="-4" relative="1" as="geometry">
            <mxPoint x="-1" as="offset" />
          </mxGeometry>
        </mxCell>
        <mxCell id="5HCTBghDy20LutXGEIBz-1067" value="&lt;span style=&quot;font-size: 36px;&quot;&gt;اضافه‌کردن پاتولوژیست&lt;/span&gt;" style="ellipse;whiteSpace=wrap;html=1;fillColor=#d5e8d4;strokeColor=#82b366;" parent="1" vertex="1">
          <mxGeometry x="-12790" y="-1792" width="385" height="260" as="geometry" />
        </mxCell>
        <mxCell id="5HCTBghDy20LutXGEIBz-1068" value="" style="endArrow=classic;html=1;rounded=0;entryX=1;entryY=0.5;entryDx=0;entryDy=0;strokeWidth=5;dashed=1;fillColor=#d5e8d4;strokeColor=#82b366;exitX=0;exitY=0.5;exitDx=0;exitDy=0;endFill=1;startArrow=none;startFill=0;" parent="1" source="5HCTBghDy20LutXGEIBz-1050" target="5HCTBghDy20LutXGEIBz-1067" edge="1">
          <mxGeometry width="50" height="50" relative="1" as="geometry">
            <mxPoint x="-11340" y="-390.71000000000004" as="sourcePoint" />
            <mxPoint x="-14181.94" y="-980.71" as="targetPoint" />
          </mxGeometry>
        </mxCell>
        <mxCell id="5HCTBghDy20LutXGEIBz-1069" value="&lt;span style=&quot;font-size: 36px;&quot;&gt;&amp;lt;&amp;lt;include&amp;gt;&amp;gt;&lt;/span&gt;" style="edgeLabel;html=1;align=center;verticalAlign=middle;resizable=0;points=[];" parent="5HCTBghDy20LutXGEIBz-1068" connectable="0" vertex="1">
          <mxGeometry x="0.0905" y="-4" relative="1" as="geometry">
            <mxPoint x="-1" as="offset" />
          </mxGeometry>
        </mxCell>
        <mxCell id="5HCTBghDy20LutXGEIBz-1070" value="&lt;font style=&quot;font-size: 36px;&quot;&gt;&amp;nbsp;ویرایش نتایج آزمایش برای بیمار&lt;/font&gt;" style="ellipse;whiteSpace=wrap;html=1;fillColor=#ffe6cc;strokeColor=#d79b00;" parent="1" vertex="1">
          <mxGeometry x="-12090" y="3260" width="385" height="260" as="geometry" />
        </mxCell>
        <mxCell id="5HCTBghDy20LutXGEIBz-1071" value="&lt;span style=&quot;font-size: 36px;&quot;&gt;حذف‌کردن تکنسین&lt;/span&gt;" style="ellipse;whiteSpace=wrap;html=1;fillColor=#d5e8d4;strokeColor=#82b366;" parent="1" vertex="1">
          <mxGeometry x="-12370" y="-2822" width="385" height="260" as="geometry" />
        </mxCell>
        <mxCell id="5HCTBghDy20LutXGEIBz-1072" value="" style="endArrow=classic;html=1;rounded=0;entryX=1;entryY=0.5;entryDx=0;entryDy=0;strokeWidth=5;dashed=1;fillColor=#d5e8d4;strokeColor=#82b366;endFill=1;startArrow=none;startFill=0;exitX=0;exitY=0.5;exitDx=0;exitDy=0;" parent="1" source="5HCTBghDy20LutXGEIBz-1058" target="5HCTBghDy20LutXGEIBz-1071" edge="1">
          <mxGeometry width="50" height="50" relative="1" as="geometry">
            <mxPoint x="-11377" y="-1392" as="sourcePoint" />
            <mxPoint x="-14228.94" y="-1952" as="targetPoint" />
          </mxGeometry>
        </mxCell>
        <mxCell id="5HCTBghDy20LutXGEIBz-1073" value="&lt;span style=&quot;font-size: 36px;&quot;&gt;&amp;lt;&amp;lt;include&amp;gt;&amp;gt;&lt;/span&gt;" style="edgeLabel;html=1;align=center;verticalAlign=middle;resizable=0;points=[];" parent="5HCTBghDy20LutXGEIBz-1072" connectable="0" vertex="1">
          <mxGeometry x="0.0905" y="-4" relative="1" as="geometry">
            <mxPoint x="-1" as="offset" />
          </mxGeometry>
        </mxCell>
        <mxCell id="5HCTBghDy20LutXGEIBz-1074" value="&lt;span style=&quot;font-size: 36px;&quot;&gt;حدف‌کردن پاتولوژیست&lt;/span&gt;" style="ellipse;whiteSpace=wrap;html=1;fillColor=#d5e8d4;strokeColor=#82b366;" parent="1" vertex="1">
          <mxGeometry x="-12660" y="-1512" width="385" height="260" as="geometry" />
        </mxCell>
        <mxCell id="5HCTBghDy20LutXGEIBz-1075" value="" style="endArrow=none;html=1;rounded=0;entryX=0.5;entryY=0.5;entryDx=0;entryDy=0;entryPerimeter=0;exitX=1;exitY=0.5;exitDx=0;exitDy=0;fillColor=#e1d5e7;strokeColor=#9673a6;strokeWidth=3;" parent="1" source="5HCTBghDy20LutXGEIBz-1008" target="5HCTBghDy20LutXGEIBz-1002" edge="1">
          <mxGeometry width="50" height="50" relative="1" as="geometry">
            <mxPoint x="-12070.5" y="5025" as="sourcePoint" />
            <mxPoint x="-10370.5" y="5520" as="targetPoint" />
          </mxGeometry>
        </mxCell>
        <mxCell id="5HCTBghDy20LutXGEIBz-1076" value="" style="endArrow=classic;html=1;rounded=0;entryX=1;entryY=0.5;entryDx=0;entryDy=0;strokeWidth=5;dashed=1;fillColor=#d5e8d4;strokeColor=#82b366;exitX=0.043;exitY=0.748;exitDx=0;exitDy=0;endFill=1;startArrow=none;startFill=0;exitPerimeter=0;" parent="1" source="5HCTBghDy20LutXGEIBz-1050" target="5HCTBghDy20LutXGEIBz-1074" edge="1">
          <mxGeometry width="50" height="50" relative="1" as="geometry">
            <mxPoint x="-11355" y="-364" as="sourcePoint" />
            <mxPoint x="-12260" y="-742" as="targetPoint" />
          </mxGeometry>
        </mxCell>
        <mxCell id="5HCTBghDy20LutXGEIBz-1077" value="&lt;span style=&quot;font-size: 36px;&quot;&gt;&amp;lt;&amp;lt;include&amp;gt;&amp;gt;&lt;/span&gt;" style="edgeLabel;html=1;align=center;verticalAlign=middle;resizable=0;points=[];" parent="5HCTBghDy20LutXGEIBz-1076" connectable="0" vertex="1">
          <mxGeometry x="0.0905" y="-4" relative="1" as="geometry">
            <mxPoint x="-1" as="offset" />
          </mxGeometry>
        </mxCell>
        <mxCell id="5HCTBghDy20LutXGEIBz-1078" value="&lt;font style=&quot;font-size: 36px;&quot;&gt;گزارش اتمام آزمایش&lt;/font&gt;" style="ellipse;whiteSpace=wrap;html=1;fillColor=#ffe6cc;strokeColor=#d79b00;" parent="1" vertex="1">
          <mxGeometry x="-12860" y="3260" width="385" height="260" as="geometry" />
        </mxCell>
        <mxCell id="5HCTBghDy20LutXGEIBz-1080" value="&lt;span style=&quot;font-size: 36px;&quot;&gt;مدیریت بازه‌های نوبت‌دهی&lt;/span&gt;" style="ellipse;whiteSpace=wrap;html=1;fillColor=#d5e8d4;strokeColor=#82b366;" parent="1" vertex="1">
          <mxGeometry x="-12815" y="-3472" width="385" height="260" as="geometry" />
        </mxCell>
        <mxCell id="5HCTBghDy20LutXGEIBz-1081" value="&lt;span style=&quot;font-size: 36px;&quot;&gt;مدیریت انواع آزمایش&lt;/span&gt;" style="ellipse;whiteSpace=wrap;html=1;fillColor=#d5e8d4;strokeColor=#82b366;" parent="1" vertex="1">
          <mxGeometry x="-12840" y="-2182" width="385" height="260" as="geometry" />
        </mxCell>
        <mxCell id="5HCTBghDy20LutXGEIBz-1082" value="" style="endArrow=none;html=1;rounded=0;exitX=1;exitY=0.5;exitDx=0;exitDy=0;strokeWidth=3;entryX=0.5;entryY=0.5;entryDx=0;entryDy=0;entryPerimeter=0;fillColor=#d5e8d4;strokeColor=#82b366;" parent="1" source="5HCTBghDy20LutXGEIBz-1080" target="5HCTBghDy20LutXGEIBz-999" edge="1">
          <mxGeometry width="50" height="50" relative="1" as="geometry">
            <mxPoint x="-10982" y="-602" as="sourcePoint" />
            <mxPoint x="-10255" y="-2577" as="targetPoint" />
          </mxGeometry>
        </mxCell>
        <mxCell id="5HCTBghDy20LutXGEIBz-1083" value="" style="endArrow=none;html=1;rounded=0;exitX=1;exitY=0.5;exitDx=0;exitDy=0;strokeWidth=3;entryX=0.5;entryY=0.5;entryDx=0;entryDy=0;entryPerimeter=0;fillColor=#d5e8d4;strokeColor=#82b366;" parent="1" source="5HCTBghDy20LutXGEIBz-1081" target="5HCTBghDy20LutXGEIBz-999" edge="1">
          <mxGeometry width="50" height="50" relative="1" as="geometry">
            <mxPoint x="-10982" y="-62" as="sourcePoint" />
            <mxPoint x="-10255" y="-2577" as="targetPoint" />
          </mxGeometry>
        </mxCell>
        <mxCell id="5HCTBghDy20LutXGEIBz-1084" value="" style="endArrow=none;html=1;rounded=0;exitX=1;exitY=0.5;exitDx=0;exitDy=0;fillColor=#bac8d3;strokeColor=#23445d;strokeWidth=3;entryX=0.5;entryY=0.5;entryDx=0;entryDy=0;entryPerimeter=0;" parent="1" source="5HCTBghDy20LutXGEIBz-1061" target="5HCTBghDy20LutXGEIBz-1002" edge="1">
          <mxGeometry width="50" height="50" relative="1" as="geometry">
            <mxPoint x="-11667.5" y="7410" as="sourcePoint" />
            <mxPoint x="-10070" y="6660" as="targetPoint" />
          </mxGeometry>
        </mxCell>
        <mxCell id="5HCTBghDy20LutXGEIBz-1085" value="&lt;span style=&quot;font-size: 36px;&quot;&gt;ورود به حساب کاربری&lt;/span&gt;" style="ellipse;whiteSpace=wrap;html=1;fillColor=#bac8d3;strokeColor=#23445d;" parent="1" vertex="1">
          <mxGeometry x="-11814.999999999998" y="3990" width="385" height="260" as="geometry" />
        </mxCell>
        <mxCell id="5HCTBghDy20LutXGEIBz-1086" value="" style="endArrow=classic;html=1;rounded=0;entryX=1;entryY=0;entryDx=0;entryDy=0;strokeWidth=5;dashed=1;fillColor=#b0e3e6;exitX=0;exitY=0.5;exitDx=0;exitDy=0;strokeColor=#0e8088;" parent="1" source="5HCTBghDy20LutXGEIBz-1003" target="5HCTBghDy20LutXGEIBz-1048" edge="1">
          <mxGeometry width="50" height="50" relative="1" as="geometry">
            <mxPoint x="-11830" y="-3442" as="sourcePoint" />
            <mxPoint x="-12415" y="-3512" as="targetPoint" />
          </mxGeometry>
        </mxCell>
        <mxCell id="5HCTBghDy20LutXGEIBz-1087" value="&lt;font style=&quot;font-size: 36px;&quot;&gt;&amp;lt;&amp;lt;include&amp;gt;&amp;gt;&lt;/font&gt;" style="edgeLabel;html=1;align=center;verticalAlign=middle;resizable=0;points=[];" parent="5HCTBghDy20LutXGEIBz-1086" connectable="0" vertex="1">
          <mxGeometry x="0.0905" y="-4" relative="1" as="geometry">
            <mxPoint x="-1" as="offset" />
          </mxGeometry>
        </mxCell>
        <mxCell id="5HCTBghDy20LutXGEIBz-1088" value="&lt;span style=&quot;font-size: 36px;&quot;&gt;ویرایش&lt;/span&gt;" style="ellipse;whiteSpace=wrap;html=1;fillColor=#d5e8d4;strokeColor=#82b366;" parent="1" vertex="1">
          <mxGeometry x="-13620" y="-3472" width="385" height="260" as="geometry" />
        </mxCell>
        <mxCell id="5HCTBghDy20LutXGEIBz-1089" value="" style="endArrow=none;html=1;rounded=0;exitX=1;exitY=0.5;exitDx=0;exitDy=0;fillColor=#bac8d3;strokeColor=#23445d;strokeWidth=3;entryX=0.5;entryY=0.5;entryDx=0;entryDy=0;entryPerimeter=0;" parent="1" source="5HCTBghDy20LutXGEIBz-1085" target="5HCTBghDy20LutXGEIBz-1002" edge="1">
          <mxGeometry width="50" height="50" relative="1" as="geometry">
            <mxPoint x="-11646.5" y="5790" as="sourcePoint" />
            <mxPoint x="-10070" y="6660" as="targetPoint" />
          </mxGeometry>
        </mxCell>
        <mxCell id="5HCTBghDy20LutXGEIBz-1096" value="" style="endArrow=classic;html=1;rounded=0;entryX=1;entryY=0.5;entryDx=0;entryDy=0;strokeWidth=5;dashed=1;fillColor=#d5e8d4;strokeColor=#82b366;exitX=0;exitY=0.5;exitDx=0;exitDy=0;endFill=1;startArrow=none;startFill=0;" parent="1" source="5HCTBghDy20LutXGEIBz-1081" target="5HCTBghDy20LutXGEIBz-1119" edge="1">
          <mxGeometry width="50" height="50" relative="1" as="geometry">
            <mxPoint x="-11344" y="1518" as="sourcePoint" />
            <mxPoint x="-14170.94" y="1419.29" as="targetPoint" />
          </mxGeometry>
        </mxCell>
        <mxCell id="5HCTBghDy20LutXGEIBz-1097" value="&lt;span style=&quot;font-size: 36px;&quot;&gt;&amp;lt;&amp;lt;include&amp;gt;&amp;gt;&lt;/span&gt;" style="edgeLabel;html=1;align=center;verticalAlign=middle;resizable=0;points=[];" parent="5HCTBghDy20LutXGEIBz-1096" connectable="0" vertex="1">
          <mxGeometry x="0.0905" y="-4" relative="1" as="geometry">
            <mxPoint x="-1" as="offset" />
          </mxGeometry>
        </mxCell>
        <mxCell id="5HCTBghDy20LutXGEIBz-1098" value="&lt;span style=&quot;font-size: 36px;&quot;&gt;حذف&lt;/span&gt;" style="ellipse;whiteSpace=wrap;html=1;fillColor=#d5e8d4;strokeColor=#82b366;" parent="1" vertex="1">
          <mxGeometry x="-13885" y="-1822" width="385" height="260" as="geometry" />
        </mxCell>
        <mxCell id="5HCTBghDy20LutXGEIBz-1109" value="&lt;span style=&quot;font-size: 36px;&quot;&gt;تکمیل اطلاعات&lt;/span&gt;" style="ellipse;whiteSpace=wrap;html=1;fillColor=#bac8d3;strokeColor=#23445d;" parent="1" vertex="1">
          <mxGeometry x="-12712.5" y="3980" width="385" height="260" as="geometry" />
        </mxCell>
        <mxCell id="5HCTBghDy20LutXGEIBz-1115" value="" style="endArrow=classic;html=1;rounded=0;entryX=1;entryY=0.5;entryDx=0;entryDy=0;strokeWidth=5;dashed=1;fillColor=#d5e8d4;strokeColor=#82b366;exitX=0;exitY=0;exitDx=0;exitDy=0;endFill=1;startArrow=none;startFill=0;" parent="1" source="5HCTBghDy20LutXGEIBz-1081" target="5HCTBghDy20LutXGEIBz-1127" edge="1">
          <mxGeometry width="50" height="50" relative="1" as="geometry">
            <mxPoint x="-11287" y="1425" as="sourcePoint" />
            <mxPoint x="-14170.94" y="1099.29" as="targetPoint" />
          </mxGeometry>
        </mxCell>
        <mxCell id="5HCTBghDy20LutXGEIBz-1116" value="&lt;span style=&quot;font-size: 36px;&quot;&gt;&amp;lt;&amp;lt;include&amp;gt;&amp;gt;&lt;/span&gt;" style="edgeLabel;html=1;align=center;verticalAlign=middle;resizable=0;points=[];" parent="5HCTBghDy20LutXGEIBz-1115" connectable="0" vertex="1">
          <mxGeometry x="0.0905" y="-4" relative="1" as="geometry">
            <mxPoint x="-1" as="offset" />
          </mxGeometry>
        </mxCell>
        <mxCell id="5HCTBghDy20LutXGEIBz-1117" value="" style="endArrow=classic;html=1;rounded=0;entryX=1;entryY=0.5;entryDx=0;entryDy=0;strokeWidth=5;dashed=1;fillColor=#d5e8d4;strokeColor=#82b366;exitX=0;exitY=1;exitDx=0;exitDy=0;endFill=1;startArrow=none;startFill=0;" parent="1" source="5HCTBghDy20LutXGEIBz-1081" target="5HCTBghDy20LutXGEIBz-1098" edge="1">
          <mxGeometry width="50" height="50" relative="1" as="geometry">
            <mxPoint x="-11287" y="1611" as="sourcePoint" />
            <mxPoint x="-11754" y="1548" as="targetPoint" />
          </mxGeometry>
        </mxCell>
        <mxCell id="5HCTBghDy20LutXGEIBz-1118" value="&lt;span style=&quot;font-size: 36px;&quot;&gt;&amp;lt;&amp;lt;include&amp;gt;&amp;gt;&lt;/span&gt;" style="edgeLabel;html=1;align=center;verticalAlign=middle;resizable=0;points=[];" parent="5HCTBghDy20LutXGEIBz-1117" connectable="0" vertex="1">
          <mxGeometry x="0.0905" y="-4" relative="1" as="geometry">
            <mxPoint x="-1" as="offset" />
          </mxGeometry>
        </mxCell>
        <mxCell id="5HCTBghDy20LutXGEIBz-1119" value="&lt;span style=&quot;font-size: 36px;&quot;&gt;ویرایش&lt;/span&gt;" style="ellipse;whiteSpace=wrap;html=1;fillColor=#d5e8d4;strokeColor=#82b366;" parent="1" vertex="1">
          <mxGeometry x="-13879" y="-2212" width="385" height="260" as="geometry" />
        </mxCell>
        <mxCell id="5HCTBghDy20LutXGEIBz-1122" value="" style="endArrow=classic;html=1;rounded=0;entryX=1;entryY=0.5;entryDx=0;entryDy=0;strokeWidth=5;dashed=1;fillColor=#d5e8d4;strokeColor=#82b366;exitX=0;exitY=0.5;exitDx=0;exitDy=0;endFill=1;startArrow=none;startFill=0;" parent="1" source="5HCTBghDy20LutXGEIBz-1080" target="5HCTBghDy20LutXGEIBz-1088" edge="1">
          <mxGeometry width="50" height="50" relative="1" as="geometry">
            <mxPoint x="-11298" y="715" as="sourcePoint" />
            <mxPoint x="-14181.94" y="389.28999999999996" as="targetPoint" />
          </mxGeometry>
        </mxCell>
        <mxCell id="5HCTBghDy20LutXGEIBz-1123" value="&lt;span style=&quot;font-size: 36px;&quot;&gt;&amp;lt;&amp;lt;include&amp;gt;&amp;gt;&lt;/span&gt;" style="edgeLabel;html=1;align=center;verticalAlign=middle;resizable=0;points=[];" parent="5HCTBghDy20LutXGEIBz-1122" connectable="0" vertex="1">
          <mxGeometry x="0.0905" y="-4" relative="1" as="geometry">
            <mxPoint x="-1" as="offset" />
          </mxGeometry>
        </mxCell>
        <mxCell id="5HCTBghDy20LutXGEIBz-1124" value="&lt;span style=&quot;font-size: 36px;&quot;&gt;حذف&lt;/span&gt;" style="ellipse;whiteSpace=wrap;html=1;fillColor=#d5e8d4;strokeColor=#82b366;" parent="1" vertex="1">
          <mxGeometry x="-13620" y="-3092" width="385" height="260" as="geometry" />
        </mxCell>
        <mxCell id="5HCTBghDy20LutXGEIBz-1125" value="" style="endArrow=classic;html=1;rounded=0;entryX=1;entryY=0.5;entryDx=0;entryDy=0;strokeWidth=5;dashed=1;fillColor=#d5e8d4;strokeColor=#82b366;exitX=0;exitY=1;exitDx=0;exitDy=0;endFill=1;startArrow=none;startFill=0;" parent="1" source="5HCTBghDy20LutXGEIBz-1080" target="5HCTBghDy20LutXGEIBz-1124" edge="1">
          <mxGeometry width="50" height="50" relative="1" as="geometry">
            <mxPoint x="-11345" y="498" as="sourcePoint" />
            <mxPoint x="-11765" y="518" as="targetPoint" />
          </mxGeometry>
        </mxCell>
        <mxCell id="5HCTBghDy20LutXGEIBz-1126" value="&lt;span style=&quot;font-size: 36px;&quot;&gt;&amp;lt;&amp;lt;include&amp;gt;&amp;gt;&lt;/span&gt;" style="edgeLabel;html=1;align=center;verticalAlign=middle;resizable=0;points=[];" parent="5HCTBghDy20LutXGEIBz-1125" connectable="0" vertex="1">
          <mxGeometry x="0.0905" y="-4" relative="1" as="geometry">
            <mxPoint x="-1" as="offset" />
          </mxGeometry>
        </mxCell>
        <mxCell id="5HCTBghDy20LutXGEIBz-1127" value="&lt;span style=&quot;font-size: 36px;&quot;&gt;اضافه‌کردن&lt;/span&gt;" style="ellipse;whiteSpace=wrap;html=1;fillColor=#d5e8d4;strokeColor=#82b366;" parent="1" vertex="1">
          <mxGeometry x="-13890" y="-2582" width="385" height="260" as="geometry" />
        </mxCell>
        <mxCell id="5HCTBghDy20LutXGEIBz-1128" value="" style="endArrow=classic;html=1;rounded=0;entryX=1;entryY=0.5;entryDx=0;entryDy=0;strokeWidth=5;dashed=1;fillColor=#d5e8d4;strokeColor=#82b366;exitX=0;exitY=0;exitDx=0;exitDy=0;endFill=1;startArrow=none;startFill=0;" parent="1" source="5HCTBghDy20LutXGEIBz-1080" target="5HCTBghDy20LutXGEIBz-1130" edge="1">
          <mxGeometry width="50" height="50" relative="1" as="geometry">
            <mxPoint x="-11377" y="438" as="sourcePoint" />
            <mxPoint x="-14181.94" y="69.28999999999996" as="targetPoint" />
          </mxGeometry>
        </mxCell>
        <mxCell id="5HCTBghDy20LutXGEIBz-1129" value="&lt;span style=&quot;font-size: 36px;&quot;&gt;&amp;lt;&amp;lt;include&amp;gt;&amp;gt;&lt;/span&gt;" style="edgeLabel;html=1;align=center;verticalAlign=middle;resizable=0;points=[];" parent="5HCTBghDy20LutXGEIBz-1128" connectable="0" vertex="1">
          <mxGeometry x="0.0905" y="-4" relative="1" as="geometry">
            <mxPoint x="-1" as="offset" />
          </mxGeometry>
        </mxCell>
        <mxCell id="5HCTBghDy20LutXGEIBz-1130" value="&lt;span style=&quot;font-size: 36px;&quot;&gt;اضافه‌کردن&lt;/span&gt;" style="ellipse;whiteSpace=wrap;html=1;fillColor=#d5e8d4;strokeColor=#82b366;" parent="1" vertex="1">
          <mxGeometry x="-13620" y="-3872" width="385" height="260" as="geometry" />
        </mxCell>
        <mxCell id="5HCTBghDy20LutXGEIBz-1136" value="" style="endArrow=none;html=1;rounded=0;exitX=1;exitY=0.5;exitDx=0;exitDy=0;fillColor=#e1d5e7;strokeColor=#9673a6;strokeWidth=3;entryX=0.5;entryY=0.5;entryDx=0;entryDy=0;entryPerimeter=0;" parent="1" source="5HCTBghDy20LutXGEIBz-1036" target="5HCTBghDy20LutXGEIBz-1002" edge="1">
          <mxGeometry width="50" height="50" relative="1" as="geometry">
            <mxPoint x="-11698.58" y="7401.58" as="sourcePoint" />
            <mxPoint x="-10370.5" y="5520" as="targetPoint" />
          </mxGeometry>
        </mxCell>
        <mxCell id="5HCTBghDy20LutXGEIBz-1139" value="" style="endArrow=classic;html=1;rounded=0;exitX=0;exitY=0.5;exitDx=0;exitDy=0;strokeWidth=5;dashed=1;fillColor=#b0e3e6;entryX=1;entryY=1;entryDx=0;entryDy=0;strokeColor=#0e8088;" parent="1" source="5HCTBghDy20LutXGEIBz-1109" target="5HCTBghDy20LutXGEIBz-1048" edge="1">
          <mxGeometry width="50" height="50" relative="1" as="geometry">
            <mxPoint x="-11701.439999999999" y="4978" as="sourcePoint" />
            <mxPoint x="-12316.439999999999" y="4978" as="targetPoint" />
          </mxGeometry>
        </mxCell>
        <mxCell id="5HCTBghDy20LutXGEIBz-1140" value="&lt;font style=&quot;font-size: 36px;&quot;&gt;&amp;lt;&amp;lt;include&amp;gt;&amp;gt;&lt;/font&gt;" style="edgeLabel;html=1;align=center;verticalAlign=middle;resizable=0;points=[];fontColor=#000000;" parent="5HCTBghDy20LutXGEIBz-1139" connectable="0" vertex="1">
          <mxGeometry x="0.0905" y="-4" relative="1" as="geometry">
            <mxPoint x="25" y="-1" as="offset" />
          </mxGeometry>
        </mxCell>
        <mxCell id="5HCTBghDy20LutXGEIBz-1151" value="" style="endArrow=classicThin;html=1;rounded=0;exitX=0;exitY=0;exitDx=0;exitDy=0;strokeWidth=5;dashed=1;entryX=1;entryY=0.5;entryDx=0;entryDy=0;fillColor=#e1d5e7;strokeColor=#9673a6;startArrow=none;startFill=0;endFill=1;" parent="1" source="5HCTBghDy20LutXGEIBz-1008" target="5HCTBghDy20LutXGEIBz-1026" edge="1">
          <mxGeometry width="50" height="50" relative="1" as="geometry">
            <mxPoint x="-12937.725506593588" y="6234.977284962282" as="sourcePoint" />
            <mxPoint x="-12965.5" y="5765" as="targetPoint" />
          </mxGeometry>
        </mxCell>
        <mxCell id="5HCTBghDy20LutXGEIBz-1152" value="&lt;font style=&quot;font-size: 36px;&quot;&gt;&amp;lt;&amp;lt;include&amp;gt;&amp;gt;&lt;/font&gt;" style="edgeLabel;html=1;align=center;verticalAlign=middle;resizable=0;points=[];fontColor=#000000;rotation=0;" parent="5HCTBghDy20LutXGEIBz-1151" connectable="0" vertex="1">
          <mxGeometry x="0.0905" y="-4" relative="1" as="geometry">
            <mxPoint x="25" y="-1" as="offset" />
          </mxGeometry>
        </mxCell>
        <mxCell id="5HCTBghDy20LutXGEIBz-1153" value="" style="endArrow=classicThin;html=1;rounded=0;exitX=0;exitY=1;exitDx=0;exitDy=0;strokeWidth=5;dashed=1;entryX=1;entryY=0.5;entryDx=0;entryDy=0;fillColor=#e1d5e7;strokeColor=#9673a6;startArrow=none;startFill=0;endFill=1;" parent="1" source="5HCTBghDy20LutXGEIBz-1008" target="5HCTBghDy20LutXGEIBz-1215" edge="1">
          <mxGeometry width="50" height="50" relative="1" as="geometry">
            <mxPoint x="-12937.725506593588" y="6420.0227150377195" as="sourcePoint" />
            <mxPoint x="-13425.5" y="6425" as="targetPoint" />
          </mxGeometry>
        </mxCell>
        <mxCell id="5HCTBghDy20LutXGEIBz-1154" value="&lt;font style=&quot;font-size: 36px;&quot;&gt;&amp;lt;&amp;lt;include&amp;gt;&amp;gt;&lt;/font&gt;" style="edgeLabel;html=1;align=center;verticalAlign=middle;resizable=0;points=[];fontColor=#000000;rotation=0;" parent="5HCTBghDy20LutXGEIBz-1153" connectable="0" vertex="1">
          <mxGeometry x="0.0905" y="-4" relative="1" as="geometry">
            <mxPoint x="25" y="-1" as="offset" />
          </mxGeometry>
        </mxCell>
        <mxCell id="5HCTBghDy20LutXGEIBz-1162" value="" style="endArrow=classic;html=1;rounded=0;strokeWidth=3;dashed=1;fillColor=#ffe6cc;strokeColor=#d79b00;" parent="1" source="5HCTBghDy20LutXGEIBz-1070" target="5HCTBghDy20LutXGEIBz-1078" edge="1">
          <mxGeometry width="50" height="50" relative="1" as="geometry">
            <mxPoint x="-9975" y="3658" as="sourcePoint" />
            <mxPoint x="-10523" y="4062" as="targetPoint" />
          </mxGeometry>
        </mxCell>
        <mxCell id="5HCTBghDy20LutXGEIBz-1163" value="&lt;font style=&quot;font-size: 36px;&quot;&gt;&amp;lt;&amp;lt;include&amp;gt;&amp;gt;&lt;/font&gt;" style="edgeLabel;html=1;align=center;verticalAlign=middle;resizable=0;points=[];fontColor=#000000;" parent="5HCTBghDy20LutXGEIBz-1162" connectable="0" vertex="1">
          <mxGeometry x="0.0905" y="-4" relative="1" as="geometry">
            <mxPoint x="25" y="-1" as="offset" />
          </mxGeometry>
        </mxCell>
        <mxCell id="5HCTBghDy20LutXGEIBz-1164" value="" style="endArrow=classic;html=1;rounded=0;strokeWidth=3;dashed=1;fillColor=#dae8fc;strokeColor=#6c8ebf;entryX=0;entryY=0.5;entryDx=0;entryDy=0;exitX=1;exitY=0.5;exitDx=0;exitDy=0;" parent="1" source="K-58VC2i0xjmnVotQwpc-7" target="K-58VC2i0xjmnVotQwpc-8" edge="1">
          <mxGeometry width="50" height="50" relative="1" as="geometry">
            <mxPoint x="-16004.54208" y="1244.3199999999997" as="sourcePoint" />
            <mxPoint x="-15507.49999999999" y="1343" as="targetPoint" />
          </mxGeometry>
        </mxCell>
        <mxCell id="5HCTBghDy20LutXGEIBz-1165" value="&lt;font style=&quot;font-size: 36px;&quot;&gt;&amp;lt;&amp;lt;include&amp;gt;&amp;gt;&lt;/font&gt;" style="edgeLabel;html=1;align=center;verticalAlign=middle;resizable=0;points=[];fontColor=#000000;" parent="5HCTBghDy20LutXGEIBz-1164" connectable="0" vertex="1">
          <mxGeometry x="0.0905" y="-4" relative="1" as="geometry">
            <mxPoint x="25" y="-1" as="offset" />
          </mxGeometry>
        </mxCell>
        <mxCell id="5HCTBghDy20LutXGEIBz-1168" style="edgeStyle=orthogonalEdgeStyle;rounded=0;orthogonalLoop=1;jettySize=auto;html=1;" parent="1" edge="1">
          <mxGeometry relative="1" as="geometry">
            <mxPoint x="-13668.070371624077" y="2408" as="sourcePoint" />
            <mxPoint x="-13668.070371624077" y="2428" as="targetPoint" />
          </mxGeometry>
        </mxCell>
        <mxCell id="5HCTBghDy20LutXGEIBz-1171" value="" style="endArrow=classicThin;html=1;rounded=0;exitX=0.5;exitY=1;exitDx=0;exitDy=0;strokeWidth=5;dashed=1;entryX=1;entryY=0;entryDx=0;entryDy=0;fillColor=#e1d5e7;strokeColor=#9673a6;startArrow=none;startFill=0;endFill=1;" parent="1" source="5HCTBghDy20LutXGEIBz-1008" target="5HCTBghDy20LutXGEIBz-1013" edge="1">
          <mxGeometry width="50" height="50" relative="1" as="geometry">
            <mxPoint x="-12934.5" y="6259" as="sourcePoint" />
            <mxPoint x="-13410.5" y="6038" as="targetPoint" />
          </mxGeometry>
        </mxCell>
        <mxCell id="5HCTBghDy20LutXGEIBz-1172" value="&lt;font style=&quot;font-size: 36px;&quot;&gt;&amp;lt;&amp;lt;include&amp;gt;&amp;gt;&lt;/font&gt;" style="edgeLabel;html=1;align=center;verticalAlign=middle;resizable=0;points=[];fontColor=#000000;rotation=0;" parent="5HCTBghDy20LutXGEIBz-1171" connectable="0" vertex="1">
          <mxGeometry x="0.0905" y="-4" relative="1" as="geometry">
            <mxPoint x="25" y="-1" as="offset" />
          </mxGeometry>
        </mxCell>
        <mxCell id="5HCTBghDy20LutXGEIBz-1173" value="" style="endArrow=classic;html=1;rounded=0;strokeWidth=3;dashed=1;fillColor=#d0cee2;strokeColor=#56517e;entryX=1;entryY=0.5;entryDx=0;entryDy=0;exitX=0;exitY=0.5;exitDx=0;exitDy=0;" parent="1" source="5HCTBghDy20LutXGEIBz-1022" target="5HCTBghDy20LutXGEIBz-1017" edge="1">
          <mxGeometry width="50" height="50" relative="1" as="geometry">
            <mxPoint x="-11108.5" y="2332" as="sourcePoint" />
            <mxPoint x="-11711.5" y="2338" as="targetPoint" />
          </mxGeometry>
        </mxCell>
        <mxCell id="5HCTBghDy20LutXGEIBz-1174" value="&lt;font style=&quot;font-size: 36px;&quot;&gt;&amp;lt;&amp;lt;include&amp;gt;&amp;gt;&lt;/font&gt;" style="edgeLabel;html=1;align=center;verticalAlign=middle;resizable=0;points=[];fontColor=#000000;" parent="5HCTBghDy20LutXGEIBz-1173" connectable="0" vertex="1">
          <mxGeometry x="0.0905" y="-4" relative="1" as="geometry">
            <mxPoint x="25" y="-1" as="offset" />
          </mxGeometry>
        </mxCell>
        <mxCell id="5HCTBghDy20LutXGEIBz-1175" value="" style="endArrow=classicThin;html=1;rounded=0;exitX=0;exitY=0.5;exitDx=0;exitDy=0;strokeWidth=5;dashed=1;entryX=1;entryY=0.5;entryDx=0;entryDy=0;fillColor=#e1d5e7;strokeColor=#9673a6;startArrow=none;startFill=0;endFill=1;" parent="1" source="5HCTBghDy20LutXGEIBz-1008" target="5HCTBghDy20LutXGEIBz-1041" edge="1">
          <mxGeometry width="50" height="50" relative="1" as="geometry">
            <mxPoint x="-12995" y="6327.5" as="sourcePoint" />
            <mxPoint x="-13650.5" y="6038" as="targetPoint" />
          </mxGeometry>
        </mxCell>
        <mxCell id="5HCTBghDy20LutXGEIBz-1176" value="&lt;font style=&quot;font-size: 36px;&quot;&gt;&amp;lt;&amp;lt;include&amp;gt;&amp;gt;&lt;/font&gt;" style="edgeLabel;html=1;align=center;verticalAlign=middle;resizable=0;points=[];fontColor=#000000;rotation=0;" parent="5HCTBghDy20LutXGEIBz-1175" connectable="0" vertex="1">
          <mxGeometry x="0.0905" y="-4" relative="1" as="geometry">
            <mxPoint x="25" y="-1" as="offset" />
          </mxGeometry>
        </mxCell>
        <mxCell id="5HCTBghDy20LutXGEIBz-1180" value="" style="endArrow=classic;html=1;rounded=0;strokeWidth=3;dashed=1;fillColor=#ffe6cc;strokeColor=#d79b00;" parent="1" source="5HCTBghDy20LutXGEIBz-1046" target="5HCTBghDy20LutXGEIBz-1047" edge="1">
          <mxGeometry width="50" height="50" relative="1" as="geometry">
            <mxPoint x="-10005" y="3628" as="sourcePoint" />
            <mxPoint x="-10553" y="4032" as="targetPoint" />
          </mxGeometry>
        </mxCell>
        <mxCell id="5HCTBghDy20LutXGEIBz-1181" value="&lt;font style=&quot;font-size: 36px;&quot;&gt;&amp;lt;&amp;lt;include&amp;gt;&amp;gt;&lt;/font&gt;" style="edgeLabel;html=1;align=center;verticalAlign=middle;resizable=0;points=[];fontColor=#000000;" parent="5HCTBghDy20LutXGEIBz-1180" connectable="0" vertex="1">
          <mxGeometry x="0.0905" y="-4" relative="1" as="geometry">
            <mxPoint x="25" y="-1" as="offset" />
          </mxGeometry>
        </mxCell>
        <mxCell id="5HCTBghDy20LutXGEIBz-1182" value="" style="endArrow=none;html=1;rounded=0;entryX=0.5;entryY=0.5;entryDx=0;entryDy=0;entryPerimeter=0;strokeWidth=3;fillColor=#dae8fc;strokeColor=#6c8ebf;exitX=0;exitY=0.5;exitDx=0;exitDy=0;" parent="1" source="K-58VC2i0xjmnVotQwpc-5" target="5HCTBghDy20LutXGEIBz-1000" edge="1">
          <mxGeometry width="50" height="50" relative="1" as="geometry">
            <mxPoint x="-16785" y="658" as="sourcePoint" />
            <mxPoint x="-17690" y="1208" as="targetPoint" />
          </mxGeometry>
        </mxCell>
        <mxCell id="5HCTBghDy20LutXGEIBz-1184" value="" style="endArrow=none;html=1;rounded=0;strokeWidth=3;fillColor=#dae8fc;strokeColor=#6c8ebf;exitX=0;exitY=0.5;exitDx=0;exitDy=0;entryX=0.5;entryY=0.5;entryDx=0;entryDy=0;entryPerimeter=0;" parent="1" source="K-58VC2i0xjmnVotQwpc-7" target="5HCTBghDy20LutXGEIBz-1000" edge="1">
          <mxGeometry width="50" height="50" relative="1" as="geometry">
            <mxPoint x="-16754.999999999985" y="1304" as="sourcePoint" />
            <mxPoint x="-17370" y="1208" as="targetPoint" />
          </mxGeometry>
        </mxCell>
        <mxCell id="5HCTBghDy20LutXGEIBz-1186" value="" style="endArrow=none;html=1;rounded=0;strokeWidth=3;fillColor=#dae8fc;strokeColor=#6c8ebf;exitX=0;exitY=0.5;exitDx=0;exitDy=0;entryX=0.5;entryY=0.5;entryDx=0;entryDy=0;entryPerimeter=0;" parent="1" source="K-58VC2i0xjmnVotQwpc-11" target="5HCTBghDy20LutXGEIBz-1000" edge="1">
          <mxGeometry width="50" height="50" relative="1" as="geometry">
            <mxPoint x="-16545" y="2548" as="sourcePoint" />
            <mxPoint x="-17510" y="1218" as="targetPoint" />
          </mxGeometry>
        </mxCell>
        <mxCell id="5HCTBghDy20LutXGEIBz-1188" value="" style="endArrow=classic;html=1;rounded=0;strokeWidth=3;dashed=1;fillColor=#ffe6cc;strokeColor=#d79b00;" parent="1" source="5HCTBghDy20LutXGEIBz-1046" target="5HCTBghDy20LutXGEIBz-1025" edge="1">
          <mxGeometry width="50" height="50" relative="1" as="geometry">
            <mxPoint x="-9985" y="3648" as="sourcePoint" />
            <mxPoint x="-10533" y="4052" as="targetPoint" />
          </mxGeometry>
        </mxCell>
        <mxCell id="5HCTBghDy20LutXGEIBz-1189" value="&lt;font style=&quot;font-size: 36px;&quot;&gt;&amp;lt;&amp;lt;include&amp;gt;&amp;gt;&lt;/font&gt;" style="edgeLabel;html=1;align=center;verticalAlign=middle;resizable=0;points=[];fontColor=#000000;" parent="5HCTBghDy20LutXGEIBz-1188" connectable="0" vertex="1">
          <mxGeometry x="0.0905" y="-4" relative="1" as="geometry">
            <mxPoint x="25" y="-1" as="offset" />
          </mxGeometry>
        </mxCell>
        <mxCell id="5HCTBghDy20LutXGEIBz-1190" value="&lt;span style=&quot;font-size: 36px;&quot;&gt;خروج از حساب&lt;br&gt;&lt;/span&gt;" style="ellipse;whiteSpace=wrap;html=1;fillColor=#bac8d3;strokeColor=#23445d;" parent="1" vertex="1">
          <mxGeometry x="-11811.44" y="4840" width="385" height="260" as="geometry" />
        </mxCell>
        <mxCell id="5HCTBghDy20LutXGEIBz-1191" value="" style="endArrow=none;html=1;rounded=0;fillColor=#bac8d3;strokeColor=#23445d;strokeWidth=3;entryX=1;entryY=0.5;entryDx=0;entryDy=0;exitX=0.5;exitY=0.5;exitDx=0;exitDy=0;exitPerimeter=0;" parent="1" source="5HCTBghDy20LutXGEIBz-1002" target="5HCTBghDy20LutXGEIBz-1190" edge="1">
          <mxGeometry width="50" height="50" relative="1" as="geometry">
            <mxPoint x="-10357.5" y="6130" as="sourcePoint" />
            <mxPoint x="-12672.5" y="5905" as="targetPoint" />
          </mxGeometry>
        </mxCell>
        <mxCell id="5HCTBghDy20LutXGEIBz-1198" value="" style="endArrow=none;html=1;rounded=0;fillColor=#d0cee2;strokeColor=#56517e;strokeWidth=3;entryX=0.5;entryY=0.5;entryDx=0;entryDy=0;entryPerimeter=0;exitX=1;exitY=1;exitDx=0;exitDy=0;" parent="1" source="5HCTBghDy20LutXGEIBz-1022" target="5HCTBghDy20LutXGEIBz-1001" edge="1">
          <mxGeometry width="50" height="50" relative="1" as="geometry">
            <mxPoint x="-11028.75" y="2737" as="sourcePoint" />
            <mxPoint x="-9456.25" y="2288" as="targetPoint" />
          </mxGeometry>
        </mxCell>
        <mxCell id="5HCTBghDy20LutXGEIBz-1203" value="" style="endArrow=none;html=1;rounded=0;strokeWidth=3;fillColor=#dae8fc;strokeColor=#6c8ebf;entryX=0.5;entryY=0.5;entryDx=0;entryDy=0;entryPerimeter=0;exitX=0;exitY=1;exitDx=0;exitDy=0;" parent="1" source="K-58VC2i0xjmnVotQwpc-2" target="5HCTBghDy20LutXGEIBz-1000" edge="1">
          <mxGeometry width="50" height="50" relative="1" as="geometry">
            <mxPoint x="-16380" y="-282" as="sourcePoint" />
            <mxPoint x="-17690" y="1198" as="targetPoint" />
          </mxGeometry>
        </mxCell>
        <mxCell id="5HCTBghDy20LutXGEIBz-1204" value="" style="endArrow=none;html=1;rounded=0;fillColor=#ffe6cc;strokeColor=#d79b00;strokeWidth=3;entryX=0.5;entryY=0.5;entryDx=0;entryDy=0;entryPerimeter=0;" parent="1" source="5HCTBghDy20LutXGEIBz-1046" target="5HCTBghDy20LutXGEIBz-1001" edge="1">
          <mxGeometry width="50" height="50" relative="1" as="geometry">
            <mxPoint x="-10853.75" y="2360" as="sourcePoint" />
            <mxPoint x="-9456.25" y="2070" as="targetPoint" />
          </mxGeometry>
        </mxCell>
        <mxCell id="5HCTBghDy20LutXGEIBz-1208" value="" style="endArrow=none;html=1;rounded=0;strokeWidth=3;fillColor=#dae8fc;strokeColor=#6c8ebf;exitX=0;exitY=0.5;exitDx=0;exitDy=0;entryX=0.491;entryY=0.536;entryDx=0;entryDy=0;entryPerimeter=0;" parent="1" source="K-58VC2i0xjmnVotQwpc-3" target="5HCTBghDy20LutXGEIBz-1000" edge="1">
          <mxGeometry width="50" height="50" relative="1" as="geometry">
            <mxPoint x="-16623.810137515677" y="297.4150951018855" as="sourcePoint" />
            <mxPoint x="-17370" y="1198" as="targetPoint" />
          </mxGeometry>
        </mxCell>
        <mxCell id="5HCTBghDy20LutXGEIBz-1215" value="&lt;font style=&quot;font-size: 36px;&quot;&gt;ثبت تشخیص&lt;/font&gt;" style="ellipse;whiteSpace=wrap;html=1;fillColor=#e1d5e7;strokeColor=#9673a6;" parent="1" vertex="1">
          <mxGeometry x="-12782.5" y="5610" width="385" height="260" as="geometry" />
        </mxCell>
        <mxCell id="5HCTBghDy20LutXGEIBz-1216" value="" style="endArrow=none;html=1;rounded=0;strokeWidth=3;fillColor=#dae8fc;strokeColor=#6c8ebf;exitX=0;exitY=0.5;exitDx=0;exitDy=0;entryX=0.5;entryY=0.5;entryDx=0;entryDy=0;entryPerimeter=0;" parent="1" source="K-58VC2i0xjmnVotQwpc-1" target="5HCTBghDy20LutXGEIBz-1000" edge="1">
          <mxGeometry width="50" height="50" relative="1" as="geometry">
            <mxPoint x="-16708.147871939735" y="-680.181818181818" as="sourcePoint" />
            <mxPoint x="-17690" y="1098" as="targetPoint" />
          </mxGeometry>
        </mxCell>
        <mxCell id="5HCTBghDy20LutXGEIBz-1219" value="" style="endArrow=classic;html=1;rounded=0;strokeWidth=5;dashed=1;exitX=0;exitY=0.5;exitDx=0;exitDy=0;fillColor=#e1d5e7;strokeColor=#9673a6;entryX=1;entryY=0.5;entryDx=0;entryDy=0;" parent="1" source="5HCTBghDy20LutXGEIBz-1036" target="5HCTBghDy20LutXGEIBz-1013" edge="1">
          <mxGeometry width="50" height="50" relative="1" as="geometry">
            <mxPoint x="-12000.5" y="7395" as="sourcePoint" />
            <mxPoint x="-12425.5" y="7395" as="targetPoint" />
          </mxGeometry>
        </mxCell>
        <mxCell id="5HCTBghDy20LutXGEIBz-1220" value="&lt;font style=&quot;font-size: 36px;&quot;&gt;&amp;lt;&amp;lt;include&amp;gt;&amp;gt;&lt;/font&gt;" style="edgeLabel;html=1;align=center;verticalAlign=middle;resizable=0;points=[];fontColor=#000000;" parent="5HCTBghDy20LutXGEIBz-1219" connectable="0" vertex="1">
          <mxGeometry x="0.0905" y="-4" relative="1" as="geometry">
            <mxPoint x="25" y="-1" as="offset" />
          </mxGeometry>
        </mxCell>
        <mxCell id="5HCTBghDy20LutXGEIBz-1223" value="" style="endArrow=classic;html=1;rounded=0;strokeWidth=3;dashed=1;fillColor=#dae8fc;strokeColor=#6c8ebf;entryX=0;entryY=0;entryDx=0;entryDy=0;exitX=1;exitY=0.5;exitDx=0;exitDy=0;" parent="1" source="K-58VC2i0xjmnVotQwpc-1" target="5HCTBghDy20LutXGEIBz-1229" edge="1">
          <mxGeometry width="50" height="50" relative="1" as="geometry">
            <mxPoint x="-15967.5" y="-792" as="sourcePoint" />
            <mxPoint x="-15505.833333333332" y="-469.3890909090901" as="targetPoint" />
          </mxGeometry>
        </mxCell>
        <mxCell id="5HCTBghDy20LutXGEIBz-1224" value="&lt;font style=&quot;font-size: 36px;&quot;&gt;&amp;lt;&amp;lt;include&amp;gt;&amp;gt;&lt;/font&gt;" style="edgeLabel;html=1;align=center;verticalAlign=middle;resizable=0;points=[];fontColor=#000000;" parent="5HCTBghDy20LutXGEIBz-1223" connectable="0" vertex="1">
          <mxGeometry x="0.0905" y="-4" relative="1" as="geometry">
            <mxPoint x="25" y="-1" as="offset" />
          </mxGeometry>
        </mxCell>
        <mxCell id="5HCTBghDy20LutXGEIBz-1229" value="&lt;span style=&quot;font-size: 36px;&quot;&gt;دریافت کدتایید&lt;/span&gt;" style="ellipse;whiteSpace=wrap;html=1;fillColor=#dae8fc;strokeColor=#6c8ebf;" parent="1" vertex="1">
          <mxGeometry x="-15497.5" y="-692" width="385" height="260" as="geometry" />
        </mxCell>
        <mxCell id="5HCTBghDy20LutXGEIBz-1230" value="" style="endArrow=classic;html=1;rounded=0;strokeWidth=3;dashed=1;fillColor=#dae8fc;strokeColor=#6c8ebf;entryX=0;entryY=1;entryDx=0;entryDy=0;exitX=1;exitY=0.5;exitDx=0;exitDy=0;" parent="1" source="K-58VC2i0xjmnVotQwpc-2" target="5HCTBghDy20LutXGEIBz-1229" edge="1">
          <mxGeometry width="50" height="50" relative="1" as="geometry">
            <mxPoint x="-15957.5" y="-292" as="sourcePoint" />
            <mxPoint x="-15697.1655065936" y="-422.0027150377259" as="targetPoint" />
          </mxGeometry>
        </mxCell>
        <mxCell id="5HCTBghDy20LutXGEIBz-1231" value="&lt;font style=&quot;font-size: 36px;&quot;&gt;&amp;lt;&amp;lt;include&amp;gt;&amp;gt;&lt;/font&gt;" style="edgeLabel;html=1;align=center;verticalAlign=middle;resizable=0;points=[];fontColor=#000000;" parent="5HCTBghDy20LutXGEIBz-1230" connectable="0" vertex="1">
          <mxGeometry x="0.0905" y="-4" relative="1" as="geometry">
            <mxPoint x="25" y="-1" as="offset" />
          </mxGeometry>
        </mxCell>
        <mxCell id="5HCTBghDy20LutXGEIBz-1235" value="" style="endArrow=classic;html=1;rounded=0;strokeWidth=3;dashed=1;fillColor=#dae8fc;strokeColor=#6c8ebf;entryX=0;entryY=0.5;entryDx=0;entryDy=0;exitX=1;exitY=0.5;exitDx=0;exitDy=0;" parent="1" target="K-58VC2i0xjmnVotQwpc-6" edge="1">
          <mxGeometry width="50" height="50" relative="1" as="geometry">
            <mxPoint x="-15957.5" y="623" as="sourcePoint" />
            <mxPoint x="-15520.5" y="615" as="targetPoint" />
          </mxGeometry>
        </mxCell>
        <mxCell id="5HCTBghDy20LutXGEIBz-1236" value="&lt;font style=&quot;font-size: 36px;&quot;&gt;&amp;lt;&amp;lt;include&amp;gt;&amp;gt;&lt;/font&gt;" style="edgeLabel;html=1;align=center;verticalAlign=middle;resizable=0;points=[];fontColor=#000000;" parent="5HCTBghDy20LutXGEIBz-1235" connectable="0" vertex="1">
          <mxGeometry x="0.0905" y="-4" relative="1" as="geometry">
            <mxPoint x="25" y="-1" as="offset" />
          </mxGeometry>
        </mxCell>
        <mxCell id="nArVXCYNnEIDcgFHzTdH-9" value="" style="endArrow=classic;html=1;rounded=0;strokeWidth=3;dashed=1;fillColor=#ffe6cc;strokeColor=#d79b00;entryX=1;entryY=0.5;entryDx=0;entryDy=0;" parent="1" source="5HCTBghDy20LutXGEIBz-1046" target="5HCTBghDy20LutXGEIBz-1070" edge="1">
          <mxGeometry width="50" height="50" relative="1" as="geometry">
            <mxPoint x="-10108.5" y="2670" as="sourcePoint" />
            <mxPoint x="-10712.5" y="2670" as="targetPoint" />
          </mxGeometry>
        </mxCell>
        <mxCell id="nArVXCYNnEIDcgFHzTdH-10" value="&lt;font style=&quot;font-size: 36px;&quot;&gt;&amp;lt;&amp;lt;include&amp;gt;&amp;gt;&lt;/font&gt;" style="edgeLabel;html=1;align=center;verticalAlign=middle;resizable=0;points=[];fontColor=#000000;" parent="nArVXCYNnEIDcgFHzTdH-9" connectable="0" vertex="1">
          <mxGeometry x="0.0905" y="-4" relative="1" as="geometry">
            <mxPoint x="25" y="-1" as="offset" />
          </mxGeometry>
        </mxCell>
        <mxCell id="K-58VC2i0xjmnVotQwpc-1" value="&lt;span style=&quot;font-size: 36px;&quot;&gt;ثبت نام&lt;br&gt;&lt;/span&gt;" style="ellipse;whiteSpace=wrap;html=1;fillColor=#dae8fc;strokeColor=#6c8ebf;" parent="1" vertex="1">
          <mxGeometry x="-16375.56" y="-932" width="385" height="260" as="geometry" />
        </mxCell>
        <mxCell id="K-58VC2i0xjmnVotQwpc-2" value="&lt;span style=&quot;font-size: 36px;&quot;&gt;ورود&lt;br&gt;&lt;/span&gt;" style="ellipse;whiteSpace=wrap;html=1;fillColor=#dae8fc;strokeColor=#6c8ebf;" parent="1" vertex="1">
          <mxGeometry x="-16375.56" y="-422" width="385" height="260" as="geometry" />
        </mxCell>
        <mxCell id="K-58VC2i0xjmnVotQwpc-3" value="&lt;span style=&quot;font-size: 36px;&quot;&gt;ویرایش اطلاعات&lt;br&gt;&lt;/span&gt;" style="ellipse;whiteSpace=wrap;html=1;fillColor=#dae8fc;strokeColor=#6c8ebf;" parent="1" vertex="1">
          <mxGeometry x="-16342.5" y="68" width="385" height="260" as="geometry" />
        </mxCell>
        <mxCell id="K-58VC2i0xjmnVotQwpc-5" value="&lt;span style=&quot;font-size: 36px;&quot;&gt;مشاهده ی ازمایشگاه&amp;nbsp;&lt;br&gt;&lt;/span&gt;" style="ellipse;whiteSpace=wrap;html=1;fillColor=#dae8fc;strokeColor=#6c8ebf;" parent="1" vertex="1">
          <mxGeometry x="-16342.5" y="508" width="385" height="260" as="geometry" />
        </mxCell>
        <mxCell id="K-58VC2i0xjmnVotQwpc-6" value="&lt;span style=&quot;font-size: 36px;&quot;&gt;مشاهده ی جزئیات و مبالغ&lt;br&gt;&lt;/span&gt;" style="ellipse;whiteSpace=wrap;html=1;fillColor=#dae8fc;strokeColor=#6c8ebf;" parent="1" vertex="1">
          <mxGeometry x="-15480" y="498" width="385" height="260" as="geometry" />
        </mxCell>
        <mxCell id="K-58VC2i0xjmnVotQwpc-7" value="&lt;span style=&quot;font-size: 36px;&quot;&gt;مشاهده ی نوبت ها&amp;nbsp;&lt;br&gt;&lt;/span&gt;" style="ellipse;whiteSpace=wrap;html=1;fillColor=#dae8fc;strokeColor=#6c8ebf;" parent="1" vertex="1">
          <mxGeometry x="-16330" y="1448" width="385" height="260" as="geometry" />
        </mxCell>
        <mxCell id="K-58VC2i0xjmnVotQwpc-8" value="&lt;span style=&quot;font-size: 36px;&quot;&gt;جستجو&lt;br&gt;&lt;/span&gt;" style="ellipse;whiteSpace=wrap;html=1;fillColor=#dae8fc;strokeColor=#6c8ebf;" parent="1" vertex="1">
          <mxGeometry x="-15390" y="1458" width="385" height="260" as="geometry" />
        </mxCell>
        <mxCell id="K-58VC2i0xjmnVotQwpc-9" value="&lt;span style=&quot;font-size: 36px;&quot;&gt;لغو نوبت&lt;br&gt;&lt;/span&gt;" style="ellipse;whiteSpace=wrap;html=1;fillColor=#dae8fc;strokeColor=#6c8ebf;" parent="1" vertex="1">
          <mxGeometry x="-15380" y="998" width="385" height="260" as="geometry" />
        </mxCell>
        <mxCell id="K-58VC2i0xjmnVotQwpc-11" value="&lt;span style=&quot;font-size: 36px;&quot;&gt;رزرو نوبت&lt;br&gt;&lt;/span&gt;" style="ellipse;whiteSpace=wrap;html=1;fillColor=#dae8fc;strokeColor=#6c8ebf;" parent="1" vertex="1">
          <mxGeometry x="-15520" y="2558" width="385" height="260" as="geometry" />
        </mxCell>
        <mxCell id="K-58VC2i0xjmnVotQwpc-22" value="" style="endArrow=classic;html=1;rounded=0;strokeWidth=3;dashed=1;fillColor=#dae8fc;strokeColor=#6c8ebf;entryX=0;entryY=0.5;entryDx=0;entryDy=0;exitX=1;exitY=0.5;exitDx=0;exitDy=0;" parent="1" source="K-58VC2i0xjmnVotQwpc-7" target="K-58VC2i0xjmnVotQwpc-9" edge="1">
          <mxGeometry width="50" height="50" relative="1" as="geometry">
            <mxPoint x="-15994" y="1238" as="sourcePoint" />
            <mxPoint x="-15497.49999999999" y="1353" as="targetPoint" />
          </mxGeometry>
        </mxCell>
        <mxCell id="K-58VC2i0xjmnVotQwpc-23" value="&lt;font style=&quot;font-size: 36px;&quot;&gt;&amp;lt;&amp;lt;include&amp;gt;&amp;gt;&lt;/font&gt;" style="edgeLabel;html=1;align=center;verticalAlign=middle;resizable=0;points=[];fontColor=#000000;" parent="K-58VC2i0xjmnVotQwpc-22" connectable="0" vertex="1">
          <mxGeometry x="0.0905" y="-4" relative="1" as="geometry">
            <mxPoint x="25" y="-1" as="offset" />
          </mxGeometry>
        </mxCell>
        <mxCell id="K-58VC2i0xjmnVotQwpc-24" value="&lt;span style=&quot;font-size: 36px;&quot;&gt;تاریخچه ی نوبت ها&lt;br&gt;&lt;/span&gt;" style="ellipse;whiteSpace=wrap;html=1;fillColor=#dae8fc;strokeColor=#6c8ebf;" parent="1" vertex="1">
          <mxGeometry x="-15370" y="1908" width="385" height="260" as="geometry" />
        </mxCell>
        <mxCell id="K-58VC2i0xjmnVotQwpc-25" value="" style="endArrow=classic;html=1;rounded=0;strokeWidth=3;dashed=1;fillColor=#dae8fc;strokeColor=#6c8ebf;entryX=0;entryY=0.5;entryDx=0;entryDy=0;exitX=1;exitY=0.5;exitDx=0;exitDy=0;" parent="1" target="K-58VC2i0xjmnVotQwpc-24" edge="1">
          <mxGeometry width="50" height="50" relative="1" as="geometry">
            <mxPoint x="-15935" y="1588" as="sourcePoint" />
            <mxPoint x="-15470" y="1928" as="targetPoint" />
          </mxGeometry>
        </mxCell>
        <mxCell id="K-58VC2i0xjmnVotQwpc-26" value="&lt;font style=&quot;font-size: 36px;&quot;&gt;&amp;lt;&amp;lt;include&amp;gt;&amp;gt;&lt;/font&gt;" style="edgeLabel;html=1;align=center;verticalAlign=middle;resizable=0;points=[];fontColor=#000000;" parent="K-58VC2i0xjmnVotQwpc-25" connectable="0" vertex="1">
          <mxGeometry x="0.0905" y="-4" relative="1" as="geometry">
            <mxPoint x="25" y="-1" as="offset" />
          </mxGeometry>
        </mxCell>
        <mxCell id="K-58VC2i0xjmnVotQwpc-30" value="" style="endArrow=classic;html=1;rounded=0;exitX=1;exitY=0.5;exitDx=0;exitDy=0;strokeWidth=5;dashed=1;fillColor=#bac8d3;strokeColor=#23445d;entryX=0;entryY=0.5;entryDx=0;entryDy=0;" parent="1" source="5HCTBghDy20LutXGEIBz-1109" target="5HCTBghDy20LutXGEIBz-1085" edge="1">
          <mxGeometry width="50" height="50" relative="1" as="geometry">
            <mxPoint x="-12577" y="4480" as="sourcePoint" />
            <mxPoint x="-12999" y="4856" as="targetPoint" />
          </mxGeometry>
        </mxCell>
        <mxCell id="K-58VC2i0xjmnVotQwpc-31" value="&lt;font style=&quot;font-size: 36px;&quot;&gt;&amp;lt;&amp;lt;extend&amp;gt;&amp;gt;&lt;/font&gt;" style="edgeLabel;html=1;align=center;verticalAlign=middle;resizable=0;points=[];fontColor=#000000;" parent="K-58VC2i0xjmnVotQwpc-30" connectable="0" vertex="1">
          <mxGeometry x="0.0905" y="-4" relative="1" as="geometry">
            <mxPoint x="25" y="-1" as="offset" />
          </mxGeometry>
        </mxCell>
        <mxCell id="K-58VC2i0xjmnVotQwpc-32" value="" style="endArrow=classic;html=1;rounded=0;exitX=0;exitY=0.5;exitDx=0;exitDy=0;strokeWidth=5;dashed=1;fillColor=#bac8d3;strokeColor=#23445d;entryX=1;entryY=0.5;entryDx=0;entryDy=0;" parent="1" source="5HCTBghDy20LutXGEIBz-1061" target="5HCTBghDy20LutXGEIBz-1049" edge="1">
          <mxGeometry width="50" height="50" relative="1" as="geometry">
            <mxPoint x="-11694" y="4990" as="sourcePoint" />
            <mxPoint x="-12192" y="4990" as="targetPoint" />
          </mxGeometry>
        </mxCell>
        <mxCell id="K-58VC2i0xjmnVotQwpc-33" value="&lt;font style=&quot;font-size: 36px;&quot;&gt;&amp;lt;&amp;lt;include&amp;gt;&amp;gt;&lt;/font&gt;" style="edgeLabel;html=1;align=center;verticalAlign=middle;resizable=0;points=[];fontColor=#000000;" parent="K-58VC2i0xjmnVotQwpc-32" connectable="0" vertex="1">
          <mxGeometry x="0.0905" y="-4" relative="1" as="geometry">
            <mxPoint x="25" y="-1" as="offset" />
          </mxGeometry>
        </mxCell>
        <mxCell id="K-58VC2i0xjmnVotQwpc-34" value="" style="endArrow=classic;html=1;rounded=0;exitX=0;exitY=0.5;exitDx=0;exitDy=0;strokeWidth=5;dashed=1;fillColor=#b0e3e6;entryX=0.5;entryY=1;entryDx=0;entryDy=0;strokeColor=#0e8088;" parent="1" source="5HCTBghDy20LutXGEIBz-1049" target="5HCTBghDy20LutXGEIBz-1048" edge="1">
          <mxGeometry width="50" height="50" relative="1" as="geometry">
            <mxPoint x="-11677" y="5108" as="sourcePoint" />
            <mxPoint x="-12197" y="5108" as="targetPoint" />
          </mxGeometry>
        </mxCell>
        <mxCell id="K-58VC2i0xjmnVotQwpc-35" value="&lt;font style=&quot;font-size: 36px;&quot;&gt;&amp;lt;&amp;lt;include&amp;gt;&amp;gt;&lt;/font&gt;" style="edgeLabel;html=1;align=center;verticalAlign=middle;resizable=0;points=[];fontColor=#000000;" parent="K-58VC2i0xjmnVotQwpc-34" connectable="0" vertex="1">
          <mxGeometry x="0.0905" y="-4" relative="1" as="geometry">
            <mxPoint x="25" y="-1" as="offset" />
          </mxGeometry>
        </mxCell>
        <mxCell id="kJWpjG3ettngIaQq_M2S-3" value="&lt;span style=&quot;font-size: 36px;&quot;&gt;جستجو&lt;/span&gt;" style="ellipse;whiteSpace=wrap;html=1;fillColor=#d5e8d4;strokeColor=#82b366;" parent="1" vertex="1">
          <mxGeometry x="-12350" y="-1312" width="385" height="260" as="geometry" />
        </mxCell>
        <mxCell id="1gkjylGcGNWu8uaoe5jT-2" value="&lt;font style=&quot;font-size: 90px;&quot;&gt;سیستم بانکی&lt;/font&gt;" style="whiteSpace=wrap;html=1;aspect=fixed;fillColor=#b1ddf0;strokeColor=#10739e;" parent="1" vertex="1">
          <mxGeometry x="-10263" y="-152" width="760" height="760" as="geometry" />
        </mxCell>
        <mxCell id="12lfokRC4VkGzBdUPza8-1" value="" style="endArrow=none;html=1;rounded=0;fillColor=#bac8d3;strokeColor=#23445d;strokeWidth=3;entryX=0.5;entryY=0.5;entryDx=0;entryDy=0;entryPerimeter=0;exitX=1;exitY=0.5;exitDx=0;exitDy=0;" parent="1" source="5HCTBghDy20LutXGEIBz-1085" target="5HCTBghDy20LutXGEIBz-1001" edge="1">
          <mxGeometry width="50" height="50" relative="1" as="geometry">
            <mxPoint x="-10724" y="2909" as="sourcePoint" />
            <mxPoint x="-10095" y="2970" as="targetPoint" />
          </mxGeometry>
        </mxCell>
        <mxCell id="12lfokRC4VkGzBdUPza8-2" value="" style="endArrow=none;html=1;rounded=0;fillColor=#bac8d3;strokeColor=#23445d;strokeWidth=3;entryX=0.5;entryY=0.5;entryDx=0;entryDy=0;entryPerimeter=0;exitX=1;exitY=0.5;exitDx=0;exitDy=0;" parent="1" source="5HCTBghDy20LutXGEIBz-1061" target="5HCTBghDy20LutXGEIBz-1001" edge="1">
          <mxGeometry width="50" height="50" relative="1" as="geometry">
            <mxPoint x="-11295" y="4490" as="sourcePoint" />
            <mxPoint x="-10095" y="2970" as="targetPoint" />
          </mxGeometry>
        </mxCell>
        <mxCell id="12lfokRC4VkGzBdUPza8-4" value="" style="endArrow=none;html=1;rounded=0;entryX=0;entryY=0.5;entryDx=0;entryDy=0;exitX=1;exitY=0.5;exitDx=0;exitDy=0;strokeWidth=5;fillColor=#b1ddf0;strokeColor=#10739e;endFill=0;" parent="1" source="5HCTBghDy20LutXGEIBz-1004" target="1gkjylGcGNWu8uaoe5jT-2" edge="1">
          <mxGeometry width="50" height="50" relative="1" as="geometry">
            <mxPoint x="-11380" y="-3792" as="sourcePoint" />
            <mxPoint x="-12002" y="-3792" as="targetPoint" />
          </mxGeometry>
        </mxCell>
        <mxCell id="12lfokRC4VkGzBdUPza8-6" value="" style="endArrow=none;html=1;rounded=0;fillColor=#bac8d3;strokeColor=#23445d;strokeWidth=3;entryX=0.5;entryY=0.5;entryDx=0;entryDy=0;entryPerimeter=0;exitX=1;exitY=0.5;exitDx=0;exitDy=0;" parent="1" source="5HCTBghDy20LutXGEIBz-1190" target="5HCTBghDy20LutXGEIBz-1001" edge="1">
          <mxGeometry width="50" height="50" relative="1" as="geometry">
            <mxPoint x="-11440" y="5000" as="sourcePoint" />
            <mxPoint x="-10095" y="2970" as="targetPoint" />
          </mxGeometry>
        </mxCell>
        <mxCell id="1jTEC-8dFI9t8XNTkCXC-1" value="x" style="endArrow=none;html=1;rounded=0;fillColor=#d0cee2;strokeColor=#56517e;strokeWidth=3;entryX=0.5;entryY=0.5;entryDx=0;entryDy=0;entryPerimeter=0;exitX=1;exitY=0;exitDx=0;exitDy=0;" parent="1" source="5HCTBghDy20LutXGEIBz-1022" target="5HCTBghDy20LutXGEIBz-999" edge="1">
          <mxGeometry width="50" height="50" relative="1" as="geometry">
            <mxPoint x="-10725" y="2208" as="sourcePoint" />
            <mxPoint x="-10049" y="2805" as="targetPoint" />
          </mxGeometry>
        </mxCell>
        <mxCell id="RMnzSailMayGuhjdnK_W-1" value="" style="endArrow=none;html=1;rounded=0;strokeWidth=3;fillColor=#dae8fc;strokeColor=#6c8ebf;exitX=0;exitY=0.5;exitDx=0;exitDy=0;entryX=0.5;entryY=0.5;entryDx=0;entryDy=0;entryPerimeter=0;" parent="1" source="RMnzSailMayGuhjdnK_W-2" target="5HCTBghDy20LutXGEIBz-1000" edge="1">
          <mxGeometry width="50" height="50" relative="1" as="geometry">
            <mxPoint x="-16634.999999999985" y="2794" as="sourcePoint" />
            <mxPoint x="-17160" y="1508" as="targetPoint" />
          </mxGeometry>
        </mxCell>
        <mxCell id="RMnzSailMayGuhjdnK_W-2" value="&lt;span style=&quot;font-size: 36px;&quot;&gt;مشاهده آزمایش ها&lt;br&gt;&lt;/span&gt;" style="ellipse;whiteSpace=wrap;html=1;fillColor=#dae8fc;strokeColor=#6c8ebf;" parent="1" vertex="1">
          <mxGeometry x="-15540" y="3098" width="385" height="260" as="geometry" />
        </mxCell>
        <mxCell id="RMnzSailMayGuhjdnK_W-3" value="" style="endArrow=classic;html=1;rounded=0;strokeWidth=3;dashed=1;fillColor=#dae8fc;strokeColor=#6c8ebf;entryX=0;entryY=0.5;entryDx=0;entryDy=0;exitX=1;exitY=0.5;exitDx=0;exitDy=0;" parent="1" source="RMnzSailMayGuhjdnK_W-2" target="RMnzSailMayGuhjdnK_W-5" edge="1">
          <mxGeometry width="50" height="50" relative="1" as="geometry">
            <mxPoint x="-15240" y="3348" as="sourcePoint" />
            <mxPoint x="-14782.5" y="3503" as="targetPoint" />
          </mxGeometry>
        </mxCell>
        <mxCell id="RMnzSailMayGuhjdnK_W-4" value="&lt;font style=&quot;font-size: 36px;&quot;&gt;&amp;lt;&amp;lt;include&amp;gt;&amp;gt;&lt;/font&gt;" style="edgeLabel;html=1;align=center;verticalAlign=middle;resizable=0;points=[];fontColor=#000000;" parent="RMnzSailMayGuhjdnK_W-3" connectable="0" vertex="1">
          <mxGeometry x="0.0905" y="-4" relative="1" as="geometry">
            <mxPoint x="25" y="-1" as="offset" />
          </mxGeometry>
        </mxCell>
        <mxCell id="RMnzSailMayGuhjdnK_W-5" value="&lt;span style=&quot;font-size: 36px;&quot;&gt;مشاهده ی وضعیت ازمایش&lt;br&gt;&lt;/span&gt;" style="ellipse;whiteSpace=wrap;html=1;fillColor=#dae8fc;strokeColor=#6c8ebf;" parent="1" vertex="1">
          <mxGeometry x="-14740" y="3098" width="385" height="260" as="geometry" />
        </mxCell>
        <mxCell id="HiH--3mHFvJlIK8cYKuV-2" value="" style="endArrow=none;html=1;rounded=0;exitX=0.991;exitY=0.55;exitDx=0;exitDy=0;strokeWidth=3;fillColor=#b0e3e6;strokeColor=#0e8088;entryX=0.5;entryY=0.5;entryDx=0;entryDy=0;entryPerimeter=0;exitPerimeter=0;" parent="1" source="5HCTBghDy20LutXGEIBz-1023" target="5HCTBghDy20LutXGEIBz-1001" edge="1">
          <mxGeometry width="50" height="50" relative="1" as="geometry">
            <mxPoint x="-13305" y="1258" as="sourcePoint" />
            <mxPoint x="-10170" y="1828" as="targetPoint" />
          </mxGeometry>
        </mxCell>
        <mxCell id="HiH--3mHFvJlIK8cYKuV-3" value="" style="endArrow=none;html=1;rounded=0;exitX=0.987;exitY=0.608;exitDx=0;exitDy=0;strokeWidth=3;fillColor=#b0e3e6;strokeColor=#0e8088;entryX=0.5;entryY=0.5;entryDx=0;entryDy=0;entryPerimeter=0;exitPerimeter=0;" parent="1" source="5HCTBghDy20LutXGEIBz-1023" target="5HCTBghDy20LutXGEIBz-1002" edge="1">
          <mxGeometry width="50" height="50" relative="1" as="geometry">
            <mxPoint x="-13295" y="1268" as="sourcePoint" />
            <mxPoint x="-10160" y="5918" as="targetPoint" />
          </mxGeometry>
        </mxCell>
      </root>
    </mxGraphModel>
  </diagram>
  <diagram id="7lisLMmaMw_Mdz8uEs7p" name="Page-2">
    <mxGraphModel grid="1" page="1" gridSize="10" guides="1" tooltips="1" connect="1" arrows="1" fold="1" pageScale="1" pageWidth="850" pageHeight="1100" math="0" shadow="0">
      <root>
        <mxCell id="0" />
        <mxCell id="1" parent="0" />
        <mxCell id="uiYnHaEtoNZ-88OhnA_P-1" value="" style="rounded=0;whiteSpace=wrap;html=1;strokeWidth=11;" vertex="1" parent="1">
          <mxGeometry x="-12700" y="-5110" width="3090" height="4920" as="geometry" />
        </mxCell>
        <object label="&lt;span style=&quot;font-size: 28px;&quot;&gt;مدیر آزمایشگاه&lt;/span&gt;" id="uiYnHaEtoNZ-88OhnA_P-2">
          <mxCell style="shape=umlActor;verticalLabelPosition=bottom;verticalAlign=top;html=1;outlineConnect=0;labelPosition=center;align=center;" vertex="1" parent="1">
            <mxGeometry x="-9237.5" y="-4110" width="305" height="610" as="geometry" />
          </mxCell>
        </object>
        <object label="&lt;font style=&quot;font-size: 28px;&quot;&gt;بیمار&lt;/font&gt;" id="uiYnHaEtoNZ-88OhnA_P-3">
          <mxCell style="shape=umlActor;verticalLabelPosition=bottom;verticalAlign=top;html=1;outlineConnect=0;labelPosition=center;align=center;" vertex="1" parent="1">
            <mxGeometry x="-13240" y="-1970" width="310" height="620" as="geometry" />
          </mxCell>
        </object>
        <object label="&lt;font style=&quot;font-size: 28px;&quot;&gt;تکنسین&lt;/font&gt;" id="uiYnHaEtoNZ-88OhnA_P-4">
          <mxCell style="shape=umlActor;verticalLabelPosition=bottom;verticalAlign=top;html=1;outlineConnect=0;labelPosition=center;align=center;" vertex="1" parent="1">
            <mxGeometry x="-9350" y="-2240" width="310" height="620" as="geometry" />
          </mxCell>
        </object>
        <object label="&lt;font style=&quot;font-size: 28px;&quot;&gt;پاتولوژیست&lt;/font&gt;" id="uiYnHaEtoNZ-88OhnA_P-5">
          <mxCell style="shape=umlActor;verticalLabelPosition=bottom;verticalAlign=top;html=1;outlineConnect=0;labelPosition=center;align=center;fillColor=#FFFFFF;strokeColor=#1A1A1A;strokeWidth=3;" vertex="1" parent="1">
            <mxGeometry x="-9430" y="-1150" width="365" height="730" as="geometry" />
          </mxCell>
        </object>
        <mxCell id="uiYnHaEtoNZ-88OhnA_P-6" value="&lt;font style=&quot;font-size: 36px;&quot;&gt;ثبت آزمایشگاه&lt;/font&gt;" style="ellipse;whiteSpace=wrap;html=1;fillColor=#d5e8d4;strokeColor=#82b366;" vertex="1" parent="1">
          <mxGeometry x="-10340" y="-4860" width="385" height="260" as="geometry" />
        </mxCell>
        <mxCell id="uiYnHaEtoNZ-88OhnA_P-7" value="" style="group" connectable="0" vertex="1" parent="1">
          <mxGeometry x="-12085" y="-2640" width="540" height="220" as="geometry" />
        </mxCell>
        <mxCell id="uiYnHaEtoNZ-88OhnA_P-8" value="&lt;font style=&quot;font-size: 36px;&quot;&gt;مدیریت ازمایش ها و تشخیص ها&lt;/font&gt;" style="ellipse;whiteSpace=wrap;html=1;fillColor=#e1d5e7;strokeColor=#9673a6;" vertex="1" parent="1">
          <mxGeometry x="-10561.94" y="-800" width="441.94" height="265" as="geometry" />
        </mxCell>
        <mxCell id="uiYnHaEtoNZ-88OhnA_P-9" value="&lt;span style=&quot;font-size: 36px;&quot;&gt;ورود و خروج&lt;/span&gt;" style="ellipse;whiteSpace=wrap;html=1;fillColor=#d5e8d4;strokeColor=#82b366;" vertex="1" parent="1">
          <mxGeometry x="-10660" y="-4580" width="385" height="260" as="geometry" />
        </mxCell>
        <mxCell id="uiYnHaEtoNZ-88OhnA_P-10" value="" style="endArrow=none;html=1;rounded=0;entryX=0.5;entryY=0.5;entryDx=0;entryDy=0;entryPerimeter=0;exitX=1;exitY=0.5;exitDx=0;exitDy=0;strokeWidth=3;fillColor=#d5e8d4;strokeColor=#82b366;" edge="1" parent="1" source="uiYnHaEtoNZ-88OhnA_P-6" target="uiYnHaEtoNZ-88OhnA_P-2">
          <mxGeometry width="50" height="50" relative="1" as="geometry">
            <mxPoint x="-12170" y="-3840" as="sourcePoint" />
            <mxPoint x="-12120" y="-3890" as="targetPoint" />
          </mxGeometry>
        </mxCell>
        <mxCell id="uiYnHaEtoNZ-88OhnA_P-11" value="&lt;span style=&quot;font-size: 36px;&quot;&gt;ورود و خروج&lt;/span&gt;" style="ellipse;whiteSpace=wrap;html=1;fillColor=#bac8d3;strokeColor=#23445D;strokeWidth=1;" vertex="1" parent="1">
          <mxGeometry x="-10700" y="-1720" width="385" height="260" as="geometry" />
        </mxCell>
        <mxCell id="uiYnHaEtoNZ-88OhnA_P-12" value="&lt;font style=&quot;font-size: 36px;&quot;&gt;مشاهده نوبت ها&lt;/font&gt;" style="ellipse;whiteSpace=wrap;html=1;fillColor=#d0cee2;strokeColor=#56517e;" vertex="1" parent="1">
          <mxGeometry x="-10585" y="-2880" width="385" height="260" as="geometry" />
        </mxCell>
        <mxCell id="uiYnHaEtoNZ-88OhnA_P-13" value="" style="endArrow=none;html=1;rounded=0;exitX=1;exitY=0.5;exitDx=0;exitDy=0;strokeWidth=3;entryX=0.5;entryY=0.5;entryDx=0;entryDy=0;entryPerimeter=0;fillColor=#d5e8d4;strokeColor=#82b366;" edge="1" parent="1" source="uiYnHaEtoNZ-88OhnA_P-9" target="uiYnHaEtoNZ-88OhnA_P-2">
          <mxGeometry width="50" height="50" relative="1" as="geometry">
            <mxPoint x="-11965" y="-4270" as="sourcePoint" />
            <mxPoint x="-11340" y="-3820" as="targetPoint" />
          </mxGeometry>
        </mxCell>
        <mxCell id="uiYnHaEtoNZ-88OhnA_P-14" value="&lt;span style=&quot;font-size: 36px;&quot;&gt;مدیریت حساب کاربری&lt;/span&gt;" style="ellipse;whiteSpace=wrap;html=1;fillColor=#d5e8d4;strokeColor=#82b366;" vertex="1" parent="1">
          <mxGeometry x="-10730" y="-4150" width="385" height="260" as="geometry" />
        </mxCell>
        <mxCell id="uiYnHaEtoNZ-88OhnA_P-15" value="" style="endArrow=none;html=1;rounded=0;exitX=1;exitY=0.5;exitDx=0;exitDy=0;strokeWidth=3;entryX=0.5;entryY=0.5;entryDx=0;entryDy=0;entryPerimeter=0;fillColor=#d5e8d4;strokeColor=#82b366;" edge="1" parent="1" source="uiYnHaEtoNZ-88OhnA_P-14" target="uiYnHaEtoNZ-88OhnA_P-2">
          <mxGeometry width="50" height="50" relative="1" as="geometry">
            <mxPoint x="-11905" y="-4120" as="sourcePoint" />
            <mxPoint x="-11327" y="-3805" as="targetPoint" />
          </mxGeometry>
        </mxCell>
        <mxCell id="uiYnHaEtoNZ-88OhnA_P-16" value="&lt;font style=&quot;font-size: 36px;&quot;&gt;مدیریت آزمایش ها&lt;br&gt;&lt;/font&gt;" style="ellipse;whiteSpace=wrap;html=1;fillColor=#ffe6cc;strokeColor=#d79b00;" vertex="1" parent="1">
          <mxGeometry x="-10520" y="-2240" width="385" height="260" as="geometry" />
        </mxCell>
        <mxCell id="uiYnHaEtoNZ-88OhnA_P-17" value="" style="endArrow=none;html=1;rounded=0;exitX=1;exitY=0.5;exitDx=0;exitDy=0;strokeWidth=3;entryX=0.5;entryY=0.5;entryDx=0;entryDy=0;entryPerimeter=0;fillColor=#d5e8d4;strokeColor=#82b366;" edge="1" parent="1" source="uiYnHaEtoNZ-88OhnA_P-18" target="uiYnHaEtoNZ-88OhnA_P-2">
          <mxGeometry width="50" height="50" relative="1" as="geometry">
            <mxPoint x="-9685" y="-3460" as="sourcePoint" />
            <mxPoint x="-9075" y="-3795" as="targetPoint" />
          </mxGeometry>
        </mxCell>
        <mxCell id="uiYnHaEtoNZ-88OhnA_P-18" value="&lt;span style=&quot;font-size: 36px;&quot;&gt;مدیریت تکنسین ها و&lt;br&gt;&amp;nbsp;پاتولوژیست ها&lt;/span&gt;" style="ellipse;whiteSpace=wrap;html=1;fillColor=#d5e8d4;strokeColor=#82b366;" vertex="1" parent="1">
          <mxGeometry x="-10725" y="-3770" width="385" height="260" as="geometry" />
        </mxCell>
        <mxCell id="uiYnHaEtoNZ-88OhnA_P-19" value="" style="endArrow=none;html=1;rounded=0;entryX=0.5;entryY=0.5;entryDx=0;entryDy=0;entryPerimeter=0;exitX=1;exitY=0.5;exitDx=0;exitDy=0;fillColor=#e1d5e7;strokeColor=#9673a6;strokeWidth=3;" edge="1" parent="1" source="uiYnHaEtoNZ-88OhnA_P-8" target="uiYnHaEtoNZ-88OhnA_P-5">
          <mxGeometry width="50" height="50" relative="1" as="geometry">
            <mxPoint x="-10742.5" y="-290" as="sourcePoint" />
            <mxPoint x="-10692.5" y="-340" as="targetPoint" />
          </mxGeometry>
        </mxCell>
        <mxCell id="uiYnHaEtoNZ-88OhnA_P-20" value="&lt;span style=&quot;font-size: 36px;&quot;&gt;مدیریت انواع آزمایش&lt;/span&gt;" style="ellipse;whiteSpace=wrap;html=1;fillColor=#d5e8d4;strokeColor=#82b366;" vertex="1" parent="1">
          <mxGeometry x="-10500" y="-3430" width="385" height="260" as="geometry" />
        </mxCell>
        <mxCell id="uiYnHaEtoNZ-88OhnA_P-21" value="" style="endArrow=none;html=1;rounded=0;exitX=1;exitY=0.5;exitDx=0;exitDy=0;strokeWidth=3;entryX=0.5;entryY=0.5;entryDx=0;entryDy=0;entryPerimeter=0;fillColor=#d5e8d4;strokeColor=#82b366;" edge="1" parent="1" source="uiYnHaEtoNZ-88OhnA_P-20" target="uiYnHaEtoNZ-88OhnA_P-2">
          <mxGeometry width="50" height="50" relative="1" as="geometry">
            <mxPoint x="-9802" y="-1280" as="sourcePoint" />
            <mxPoint x="-9075" y="-3795" as="targetPoint" />
          </mxGeometry>
        </mxCell>
        <mxCell id="uiYnHaEtoNZ-88OhnA_P-22" value="" style="endArrow=none;html=1;rounded=0;entryX=0.5;entryY=0.5;entryDx=0;entryDy=0;entryPerimeter=0;fillColor=#bac8d3;strokeColor=#23445d;strokeWidth=3;" edge="1" parent="1" source="uiYnHaEtoNZ-88OhnA_P-29" target="uiYnHaEtoNZ-88OhnA_P-5">
          <mxGeometry width="50" height="50" relative="1" as="geometry">
            <mxPoint x="-10534.999999999975" y="-300" as="sourcePoint" />
            <mxPoint x="-9712.5" y="240" as="targetPoint" />
          </mxGeometry>
        </mxCell>
        <mxCell id="uiYnHaEtoNZ-88OhnA_P-23" value="" style="endArrow=none;html=1;rounded=0;exitX=1;exitY=1;exitDx=0;exitDy=0;fillColor=#bac8d3;strokeColor=#23445d;strokeWidth=3;entryX=0.5;entryY=0.5;entryDx=0;entryDy=0;entryPerimeter=0;" edge="1" parent="1" source="uiYnHaEtoNZ-88OhnA_P-11" target="uiYnHaEtoNZ-88OhnA_P-5">
          <mxGeometry width="50" height="50" relative="1" as="geometry">
            <mxPoint x="-10484.439999999999" y="-700" as="sourcePoint" />
            <mxPoint x="-9542.5" y="260" as="targetPoint" />
          </mxGeometry>
        </mxCell>
        <mxCell id="uiYnHaEtoNZ-88OhnA_P-24" value="" style="endArrow=none;html=1;rounded=0;strokeWidth=3;entryX=0.5;entryY=0.5;entryDx=0;entryDy=0;entryPerimeter=0;fillColor=#d0cee2;strokeColor=#56517e;exitX=1;exitY=0;exitDx=0;exitDy=0;" edge="1" parent="1" source="uiYnHaEtoNZ-88OhnA_P-12" target="uiYnHaEtoNZ-88OhnA_P-2">
          <mxGeometry width="50" height="50" relative="1" as="geometry">
            <mxPoint x="-10359" y="-3270" as="sourcePoint" />
            <mxPoint x="-9075" y="-3795" as="targetPoint" />
          </mxGeometry>
        </mxCell>
        <mxCell id="uiYnHaEtoNZ-88OhnA_P-25" value="" style="endArrow=none;html=1;rounded=0;fillColor=#d0cee2;strokeColor=#56517e;strokeWidth=3;entryX=0.5;entryY=0.5;entryDx=0;entryDy=0;entryPerimeter=0;exitX=1;exitY=1;exitDx=0;exitDy=0;" edge="1" parent="1" source="uiYnHaEtoNZ-88OhnA_P-12" target="uiYnHaEtoNZ-88OhnA_P-4">
          <mxGeometry width="50" height="50" relative="1" as="geometry">
            <mxPoint x="-10537.5" y="-1441" as="sourcePoint" />
            <mxPoint x="-9447.5" y="-1840" as="targetPoint" />
          </mxGeometry>
        </mxCell>
        <mxCell id="uiYnHaEtoNZ-88OhnA_P-26" value="" style="endArrow=none;html=1;rounded=0;fillColor=#ffe6cc;strokeColor=#d79b00;strokeWidth=3;entryX=0.5;entryY=0.5;entryDx=0;entryDy=0;entryPerimeter=0;" edge="1" parent="1" source="uiYnHaEtoNZ-88OhnA_P-16" target="uiYnHaEtoNZ-88OhnA_P-4">
          <mxGeometry width="50" height="50" relative="1" as="geometry">
            <mxPoint x="-10362.5" y="-1600" as="sourcePoint" />
            <mxPoint x="-9437.5" y="-1850" as="targetPoint" />
          </mxGeometry>
        </mxCell>
        <mxCell id="uiYnHaEtoNZ-88OhnA_P-27" value="" style="endArrow=none;html=1;rounded=0;fillColor=#bac8d3;strokeColor=#23445d;strokeWidth=3;entryX=0.5;entryY=0.5;entryDx=0;entryDy=0;entryPerimeter=0;" edge="1" parent="1" source="uiYnHaEtoNZ-88OhnA_P-11" target="uiYnHaEtoNZ-88OhnA_P-4">
          <mxGeometry width="50" height="50" relative="1" as="geometry">
            <mxPoint x="-10252.5" y="-2540" as="sourcePoint" />
            <mxPoint x="-9527.5" y="-1828" as="targetPoint" />
          </mxGeometry>
        </mxCell>
        <mxCell id="uiYnHaEtoNZ-88OhnA_P-28" value="" style="endArrow=none;html=1;rounded=0;strokeWidth=3;fillColor=#d5e8d4;strokeColor=#6C8EBF;exitX=0;exitY=0.5;exitDx=0;exitDy=0;entryX=0.5;entryY=0.5;entryDx=0;entryDy=0;entryPerimeter=0;" edge="1" parent="1" source="uiYnHaEtoNZ-88OhnA_P-31" target="uiYnHaEtoNZ-88OhnA_P-3">
          <mxGeometry width="50" height="50" relative="1" as="geometry">
            <mxPoint x="-12344.46" y="-2326.5600000000004" as="sourcePoint" />
            <mxPoint x="-13400" y="-1760" as="targetPoint" />
          </mxGeometry>
        </mxCell>
        <mxCell id="uiYnHaEtoNZ-88OhnA_P-29" value="&lt;font style=&quot;font-size: 36px;&quot;&gt;مدیریت حساب کاربری&lt;/font&gt;" style="ellipse;whiteSpace=wrap;html=1;fillColor=#bac8d3;strokeColor=#23445d;" vertex="1" parent="1">
          <mxGeometry x="-10700" y="-1300" width="385" height="260" as="geometry" />
        </mxCell>
        <mxCell id="uiYnHaEtoNZ-88OhnA_P-30" value="" style="endArrow=none;html=1;rounded=0;fillColor=#bac8d3;strokeColor=#23445d;strokeWidth=3;exitX=1;exitY=0.5;exitDx=0;exitDy=0;entryX=0.5;entryY=0.5;entryDx=0;entryDy=0;entryPerimeter=0;" edge="1" parent="1" source="uiYnHaEtoNZ-88OhnA_P-29" target="uiYnHaEtoNZ-88OhnA_P-4">
          <mxGeometry width="50" height="50" relative="1" as="geometry">
            <mxPoint x="-10502" y="-1211" as="sourcePoint" />
            <mxPoint x="-9420" y="-1850" as="targetPoint" />
          </mxGeometry>
        </mxCell>
        <mxCell id="uiYnHaEtoNZ-88OhnA_P-31" value="ورود و ثبت نام" style="ellipse;whiteSpace=wrap;html=1;fontSize=36;fillColor=#DAE8FC;strokeColor=#6C8EBF;" vertex="1" parent="1">
          <mxGeometry x="-12320" y="-2530" width="500" height="270" as="geometry" />
        </mxCell>
        <mxCell id="uiYnHaEtoNZ-88OhnA_P-32" value="مدیریت حساب کاربری" style="ellipse;whiteSpace=wrap;html=1;fontSize=36;fillColor=#DAE8FC;strokeColor=#6C8EBF;" vertex="1" parent="1">
          <mxGeometry x="-12320" y="-2140" width="500" height="270" as="geometry" />
        </mxCell>
        <mxCell id="uiYnHaEtoNZ-88OhnA_P-33" value="مشاهده آزمایشگاه ها" style="ellipse;whiteSpace=wrap;html=1;fontSize=36;fillColor=#DAE8FC;strokeColor=#6C8EBF;" vertex="1" parent="1">
          <mxGeometry x="-12320" y="-1720" width="500" height="270" as="geometry" />
        </mxCell>
        <mxCell id="uiYnHaEtoNZ-88OhnA_P-34" value="رزرو نوبت" style="ellipse;whiteSpace=wrap;html=1;fontSize=36;fillColor=#DAE8FC;strokeColor=#6C8EBF;" vertex="1" parent="1">
          <mxGeometry x="-12320" y="-1300" width="500" height="270" as="geometry" />
        </mxCell>
        <mxCell id="uiYnHaEtoNZ-88OhnA_P-35" value="" style="endArrow=none;html=1;rounded=0;strokeWidth=3;fillColor=#d5e8d4;strokeColor=#6C8EBF;exitX=0;exitY=0.5;exitDx=0;exitDy=0;entryX=0.5;entryY=0.5;entryDx=0;entryDy=0;entryPerimeter=0;" edge="1" parent="1" source="uiYnHaEtoNZ-88OhnA_P-32" target="uiYnHaEtoNZ-88OhnA_P-3">
          <mxGeometry width="50" height="50" relative="1" as="geometry">
            <mxPoint x="-12310" y="-2385" as="sourcePoint" />
            <mxPoint x="-13075" y="-1650" as="targetPoint" />
          </mxGeometry>
        </mxCell>
        <mxCell id="uiYnHaEtoNZ-88OhnA_P-36" value="" style="endArrow=none;html=1;rounded=0;strokeWidth=3;fillColor=#d5e8d4;strokeColor=#6C8EBF;exitX=0;exitY=0.5;exitDx=0;exitDy=0;entryX=0.5;entryY=0.5;entryDx=0;entryDy=0;entryPerimeter=0;" edge="1" parent="1" source="uiYnHaEtoNZ-88OhnA_P-33" target="uiYnHaEtoNZ-88OhnA_P-3">
          <mxGeometry width="50" height="50" relative="1" as="geometry">
            <mxPoint x="-12310" y="-1995" as="sourcePoint" />
            <mxPoint x="-13075" y="-1650" as="targetPoint" />
          </mxGeometry>
        </mxCell>
        <mxCell id="uiYnHaEtoNZ-88OhnA_P-37" value="" style="endArrow=none;html=1;rounded=0;strokeWidth=3;fillColor=#d5e8d4;strokeColor=#6C8EBF;exitX=0;exitY=0.5;exitDx=0;exitDy=0;entryX=0.5;entryY=0.5;entryDx=0;entryDy=0;entryPerimeter=0;" edge="1" parent="1" source="uiYnHaEtoNZ-88OhnA_P-34" target="uiYnHaEtoNZ-88OhnA_P-3">
          <mxGeometry width="50" height="50" relative="1" as="geometry">
            <mxPoint x="-12310" y="-1575" as="sourcePoint" />
            <mxPoint x="-13075" y="-1650" as="targetPoint" />
          </mxGeometry>
        </mxCell>
      </root>
    </mxGraphModel>
  </diagram>
</mxfile>
